<?xml version="1.0" standalone="no"?> <!DOCTYPE svg PUBLIC "-//W3C//DTD SVG 1.0//EN" "http://www.w3.org/TR/2001/REC-SVG-20010904/DTD/svg10.dtd" > <svg xmlns="http://www.w3.org/2000/svg" width="100%" height="100%">
<defs >
<font horiz-adv-x="517" ><font-face
    font-family=""
    units-per-em="1000"
    panose-1="0 0 0 0 0 0 0 0 0 0"
    ascent="854"
    descent="-146"
    alphabetic="0" />
<missing-glyph horiz-adv-x="496" />
<glyph unicode=" " glyph-name="space" horiz-adv-x="175" />
<glyph unicode="!" glyph-name="exclam" horiz-adv-x="249" d="M164 195H84L51 658H197L164 195ZM124 -9Q93 -9 70 13T47 67Q47 99 70 122T124 145Q140 145 154 139T179 122T196 97T202 67Q202 52 196 38T180 14T155 -3T124 -9Z" />
<glyph unicode="&quot;" glyph-name="quotedbl" horiz-adv-x="350" d="M52 423L34 639H155L138 423H52ZM213 423L195 639H316L298 423H213Z" />
<glyph unicode="#" glyph-name="numbersign" horiz-adv-x="498" d="M399 476H469V375H382L367 281H438V180H351L322 0H235L264 180H186L157 0H70L99 180H29V281H115L130 375H59V476H147L173 639H260L234 476H312L338 639H425L399 476ZM202 281H280L295 375H217L202 281Z" />
<glyph unicode="$" glyph-name="dollar" horiz-adv-x="510" d="M362 472V550Q351 552 340 554T317 558L295 374Q329 367 361 359T420 334Q458 310 475 275T492 188Q492 135 473 97T422 34T346 -3T254 -15H249L238 -107H173L184 -10Q133 -2 96 15T38 53V179H137V89Q151
84 165 81T194 75L217 270Q193 275 170 282T127 301Q45 346 45 458Q45 509 63 545T112 605T181 640T263 653L271 718H336L328 649Q373 643 407 630T461 597V472H362ZM331 238Q312 248 281 256L259 71Q309 74 339 96T370 170Q370 196 362 211T331 238ZM203 399Q216
392 231 388L252 560Q213 557 186 538T159 469Q159 445 168 428T203 399Z" />
<glyph unicode="%" glyph-name="percent" horiz-adv-x="691" d="M126 472Q126 424 140 406T178 388Q204 388 218 406T232 472V508Q232 547 219 564T178 581Q152 581 139 564T126 508V472ZM665 152Q665 111 653 80T621 29T572 -2T512 -13Q481 -13 453 -3T404 28T371
80T359 152V160Q359 197 370 226T402 276T451 308T512 319Q579 319 622 277T665 160V152ZM459 138Q459 90 473 73T512 55Q537 55 551 72T565 138V174Q565 213 552 230T512 247Q486 247 473 230T459 174V138ZM178 321Q147 321 120 331T71 362T38 413T26 485V493Q26
530 37 560T69 610T117 642T178 653Q212 653 240 642T288 611T320 560T332 493V485Q332 444 320 414T287 363T238 332T178 321ZM166 0H87L527 639H606L166 0Z" />
<glyph unicode="&amp;" glyph-name="ampersand" horiz-adv-x="619" d="M235 -11Q184 -11 145 2T78 38T37 93T23 164Q23 235 64 277T174 349Q148 378 132 411T116 488Q116 522 128 552T164 604T220 639T295 652Q378 652 423 610T468 499Q468 441 432 404T333 337L430
222Q444 251 455 285T477 362H584Q565 301 543 247T492 148L542 90H593V0H459V1L414 55Q377 23 333 6T235 -11ZM253 76Q314 76 361 119L221 287Q183 264 168 238T152 172Q152 130 177 103T253 76ZM237 491Q237 458 251 432T293 379Q328 402 343 431T358 494Q358
524 343 544T298 564Q272 564 255 545T237 491Z" />
<glyph unicode="&apos;" glyph-name="quotesingle" horiz-adv-x="194" d="M52 423L34 639H160L142 423H52Z" />
<glyph unicode="(" glyph-name="parenleft" horiz-adv-x="308" d="M158 266Q158 204 169 151T198 53T240 -28T292 -93V-98H192Q173 -81 147 -49T96 29T55 137T38 275V308Q38 380 55 439T96 545T146 624T192 673H292V668Q265 641 241 603T198 520T169 423T158 317V266Z" />
<glyph unicode=")" glyph-name="parenright" horiz-adv-x="308" d="M150 309Q150 371 139 424T110 522T68 603T16 668V673H116Q135 656 161 624T212 546T253 438T270 300V267Q270 195 253 136T212 30T162 -49T116 -98H16V-93Q43 -66 67 -28T110 55T139 152T150 258V309Z" />
<glyph unicode="*" glyph-name="asterisk" horiz-adv-x="350" d="M29 459L129 494L29 527L73 601L150 535L128 639H222L201 536L278 601L321 527L220 494L321 459L278 384L200 452L222 347H128L150 454L73 384L29 459Z" />
<glyph unicode="+" glyph-name="plus" horiz-adv-x="469" d="M286 365H427V265H286V114H183V265H42V365H183V515H286V365Z" />
<glyph unicode="," glyph-name="comma" horiz-adv-x="248" d="M32 -90Q69 2 69 88Q69 102 68 115T64 142H191Q194 125 194 108Q194 47 175 1T116 -90H32V-90Z" />
<glyph unicode="-" glyph-name="hyphen" horiz-adv-x="305" d="M48 321H257V217H48V321Z" />
<glyph unicode="." glyph-name="period" horiz-adv-x="248" d="M124 -9Q92 -9 69 14T46 69Q46 102 69 125T124 149Q156 149 179 126T202 69Q202 53 196 39T180 15T155 -2T124 -9Z" />
<glyph unicode="/" glyph-name="slash" horiz-adv-x="347" d="M103 -98H-1L227 673H331L103 -98Z" />
<glyph unicode="0" glyph-name="zero" horiz-adv-x="609" d="M305 -15Q250 -15 201 4T114 64T54 165T32 311V338Q32 415 52 474T108 572T194 632T305 653Q365 653 415 633T501 573T557 474T577 338V311Q577 227 556 166T497 64T410 5T305 -15ZM305 83Q335 83 360
93T404 128T433 190T444 285V373Q444 462 408 506T305 550Q238 550 202 506T165 373V285Q165 229 175 191T204 128T248 94T305 83Z" />
<glyph unicode="1" glyph-name="one" horiz-adv-x="413" d="M45 90H160V528L29 385H26V513L141 639H289V90H387V0H45V90Z" />
<glyph unicode="2" glyph-name="two" horiz-adv-x="490" d="M26 132Q100 178 154 218T245 296T298 370T316 444Q316 473 308 492T284 524T249 541T204 546Q153 546 111 530T37 491V577Q50 591 68 605T109 629T163 646T230 653Q275 653 315 642T385 607T432 543T449
447Q449 395 426 348T358 258T250 174T104 96V95H354V164H458V0H26V132Z" />
<glyph unicode="3" glyph-name="three" horiz-adv-x="500" d="M232 653Q277 653 316 642T385 609T430 555T447 482Q447 419 409 380T293 331V328Q378 320 424 281T470 169Q470 83 405 37T229 -10Q146 -10 97 13T23 64V151Q55 124 100 107T213 90Q273 90 304 115T336
188Q336 236 306 260T207 284H131V373H206Q265 373 291 395T317 460Q317 546 204 546Q149 546 112 532T45 498V583Q70 611 115 632T232 653Z" />
<glyph unicode="4" glyph-name="four" horiz-adv-x="544" d="M436 639V269H517V177H436V90H517V0H233V90H308V177H27V295L268 639H436ZM115 269H308V544L115 269Z" />
<glyph unicode="5" glyph-name="five" horiz-adv-x="503" d="M225 -10Q181 -10 150 -4T96 11T58 32T32 56V142Q47 132 63 123T99 106T145 95T202 90Q268 90 302 118T336 201Q336 258 302 284T194 311Q146 311 115 303T61 285H53V639H444V472H338V538H156V380Q177
386 199 389T246 393Q303 393 344 379T414 338T455 275T469 192Q469 146 453 109T405 46T328 5T225 -10Z" />
<glyph unicode="6" glyph-name="six" horiz-adv-x="564" d="M475 631Q424 606 376 574T288 505T219 424T175 333Q194 367 231 391T325 415Q374 415 413 400T479 358T520 294T535 211V206Q535 155 518 115T469 45T392 1T289 -15Q232 -15 185 2T104 52T51 132T32
238V257Q32 308 45 353T79 436T129 506T186 564T243 608T293 639H475V631ZM286 331Q229 331 197 301T165 219V198Q165 142 196 108T288 74Q347 74 374 107T402 196V212Q402 237 396 259T376 297T340 322T286 331Z" />
<glyph unicode="7" glyph-name="seven" horiz-adv-x="488" d="M18 447V639H460V501L244 0H111L344 535H125V447H18Z" />
<glyph unicode="8" glyph-name="eight" horiz-adv-x="537" d="M269 -14Q218 -14 174 -2T98 35T48 94T29 173V181Q29 240 65 280T167 339Q114 355 82 390T50 480V485Q50 522 65 553T109 606T178 640T269 652Q318 652 358 640T428 606T472 554T488 486V480Q488 426
456 391T370 339Q436 321 472 281T509 182V174Q509 129 491 94T440 35T364 -1T269 -14ZM269 75Q317 75 347 99T377 180V199Q377 249 349 275T269 302Q218 302 190 276T161 199V180Q161 124 191 100T269 75ZM269 372Q313 372 339 393T365 462V477Q365 514 340 538T269
562Q222 562 198 538T173 477V462Q173 415 199 394T269 372Z" />
<glyph unicode="9" glyph-name="nine" horiz-adv-x="564" d="M106 8Q151 30 195 60T276 128T342 208T385 298Q365 266 328 244T234 221Q186 221 148 236T84 278T43 343T29 427V432Q29 483 46 524T96 594T174 638T276 654Q334 654 381 638T461 590T513 510T532
398V380Q532 309 506 248T443 137T365 53T292 0H106V8ZM278 304Q335 304 366 334T398 415V440Q398 496 367 530T276 565Q217 565 190 532T162 442V427Q162 401 168 379T188 340T224 314T278 304Z" />
<glyph unicode=":" glyph-name="colon" horiz-adv-x="250" d="M125 -9Q93 -9 70 14T47 69Q47 102 70 125T125 149Q157 149 180 126T203 69Q203 53 197 39T181 15T156 -2T125 -9ZM125 297Q93 297 70 320T47 375Q47 408 70 431T125 455Q157 455 180 432T203 375Q203
359 197 345T181 321T156 304T125 297Z" />
<glyph unicode=";" glyph-name="semicolon" horiz-adv-x="256" d="M33 -90Q70 2 70 88Q70 102 69 115T65 142H192Q195 125 195 108Q195 47 176 1T117 -90H33V-90ZM131 297Q99 297 76 320T53 375Q53 408 76 431T131 455Q163 455 186 432T209 375Q209 359 203 345T187
321T162 304T131 297Z" />
<glyph unicode="&lt;" glyph-name="less" horiz-adv-x="472" d="M426 531V429L142 315L426 202V99L46 252V378L426 531Z" />
<glyph unicode="=" glyph-name="equal" horiz-adv-x="512" d="M460 265V170H52V265H460ZM460 448V354H52V448H460Z" />
<glyph unicode="&gt;" glyph-name="greater" horiz-adv-x="472" d="M46 99V201L329 314L46 428V531L426 378V252L46 99Z" />
<glyph unicode="?" glyph-name="question" horiz-adv-x="410" d="M257 491Q257 533 236 554T168 576Q145 576 124 573V490H24V609Q46 632 88 649T194 667Q233 667 267 657T328 627T369 575T385 500Q385 458 372 429T340 378T298 340T256 306T224 268T211 219V195H115V242Q115
293 137 325T186 382T235 431T257 491ZM248 67Q248 52 242 38T226 14T201 -3T170 -9Q139 -9 116 13T93 67Q93 99 116 122T170 145Q186 145 200 139T225 122T242 97T248 67Z" />
<glyph unicode="@" glyph-name="at" horiz-adv-x="858" d="M399 116Q416 116 433 123T464 145T488 181T503 231L505 244Q510 278 505 301T489 340T462 361T427 368Q409 368 392 359T361 331T339 279T330 201Q330 163 346 140T399 116ZM456 652Q536 652 604 629T723
562T802 455T831 313Q831 182 779 109T635 35Q575 35 543 61T505 128Q488 82 455 57T372 32Q334 32 305 45T257 81T227 137T217 209Q217 260 230 305T269 384T331 438T412 458Q464 458 492 428T527 354Q530 374 535 390T547 420Q554 435 562 447H652L610 187Q602
145 609 125T648 104Q693 104 722 156T751 313Q751 385 728 435T665 516T570 562T452 576Q377 576 315 551T209 478T139 365T114 219Q114 70 197 -9T435 -88Q514 -88 583 -66T695 -12V-81Q678 -95 652 -109T593 -134T518 -152T432 -159Q344 -159 271 -134T144 -60T61
58T31 217Q31 319 66 399T159 536T295 622T456 652Z" />
<glyph unicode="A" glyph-name="A" horiz-adv-x="661" d="M20 90H62L237 639H428L600 90H642V0H388V90H463L435 186H206L177 90H251V0H20V90ZM234 278H407L321 567L234 278Z" />
<glyph unicode="B" glyph-name="B" horiz-adv-x="590" d="M26 639H316Q419 639 476 598T534 471Q534 402 498 366T383 320V317Q468 311 513 277T558 177Q558 136 547 104T507 48T431 13T312 0H26V90H83V542H26V639ZM305 92Q343 92 367 97T406 114T425 142T430
182Q430 230 401 250T303 271H210V92H305ZM303 358Q360 358 385 381T410 450Q410 539 310 539H210V358H303Z" />
<glyph unicode="C" glyph-name="C" horiz-adv-x="588" d="M429 540Q409 545 387 547T340 550Q250 550 208 499T166 351V309Q166 192 213 138T350 83Q396 83 440 95V193H549V60Q537 47 518 34T472 10T413 -8T340 -15Q270 -15 213 7T116 73T53 179T31 324V326Q31
401 51 461T109 564T203 630T330 653Q413 653 465 631T541 584V449H429V540Z" />
<glyph unicode="D" glyph-name="D" horiz-adv-x="650" d="M26 639H331Q471 639 545 560T620 328V326Q620 243 599 182T539 80T442 20T312 0H26V90H83V542H26V639ZM301 95Q352 95 387 109T444 151T475 217T485 308V355Q485 397 478 430T451 486T401 522T321 534H212V95H301Z"
/>
<glyph unicode="E" glyph-name="E" horiz-adv-x="564" d="M417 535H212V363H443V267H212V93H425V185H531V0H26V90H83V542H26V639H524V449H417V535Z" />
<glyph unicode="F" glyph-name="F" horiz-adv-x="551" d="M416 534H212V344H460V243H212V90H303V0H26V90H83V542H26V639H525V450H416V534Z" />
<glyph unicode="G" glyph-name="G" horiz-adv-x="620" d="M337 339H575V69Q542 35 483 10T340 -15Q272 -15 215 7T117 71T54 177T31 323V325Q31 400 53 460T117 563T216 629T346 653Q427 653 476 634T552 591V449H441V540Q421 545 400 547T355 550Q266 550 216
498T165 345V311Q165 193 213 139T351 85Q377 85 401 88T448 98V242H337V339Z" />
<glyph unicode="H" glyph-name="H" horiz-adv-x="691" d="M404 90H478V274H212V90H287V0H26V90H83V542H26V639H287V542H212V376H478V542H404V639H665V542H608V90H665V0H404V90Z" />
<glyph unicode="I" glyph-name="I" horiz-adv-x="307" d="M26 639H281V542H218V90H281V0H26V90H89V542H26V639Z" />
<glyph unicode="J" glyph-name="J" horiz-adv-x="400" d="M118 639H374V542H322V177Q322 90 278 40T140 -11Q93 -11 65 -1T21 22V106Q36 101 57 96T111 91Q193 91 193 180V542H118V639Z" />
<glyph unicode="K" glyph-name="K" horiz-adv-x="632" d="M346 90H411L212 316V90H282V0H26V90H83V542H26V639H282V542H212V335L425 542H346V639H601V542H554L344 339L565 90H609V0H346V90Z" />
<glyph unicode="L" glyph-name="L" horiz-adv-x="543" d="M26 639H295V542H213V100H408V193H517V0H26V90H84V542H26V639Z" />
<glyph unicode="M" glyph-name="M" horiz-adv-x="840" d="M559 90H629V532L471 0H347L189 528V90H259V0H26V90H83V542H26V639H275L420 146L568 639H815V542H757V90H815V0H559V90Z" />
<glyph unicode="N" glyph-name="N" horiz-adv-x="699" d="M435 639H676V542H619V0H446L192 524V90H274V0H26V90H83V542H26V639H274L510 142V542H435V639Z" />
<glyph unicode="O" glyph-name="O" horiz-adv-x="674" d="M337 83Q421 83 465 135T509 303V352Q509 442 468 496T337 550Q248 550 207 496T165 352V303Q165 187 209 135T337 83ZM337 -15Q273 -15 217 6T120 69T55 174T31 321V323Q31 398 52 459T112 563T208 629T337
653Q409 653 466 630T562 563T623 459T644 323V321Q644 237 621 174T556 69T458 6T337 -15Z" />
<glyph unicode="P" glyph-name="P" horiz-adv-x="577" d="M26 639H323Q441 639 497 585T553 430Q553 328 494 275T314 221H212V90H303V0H26V90H83V542H26V639ZM300 316Q371 316 398 345T426 428Q426 481 401 509T312 537H212V316H300Z" />
<glyph unicode="Q" glyph-name="Q" horiz-adv-x="676" d="M337 -15Q273 -15 217 6T120 69T55 174T31 321V323Q31 398 52 459T112 563T208 629T337 653Q409 653 466 630T562 563T623 459T644 323V321Q644 227 616 161T537 52L569 9H648V-81H504L444 1Q419 -7 393
-11T337 -15ZM337 82Q361 82 382 85L295 204H424L472 139Q511 191 511 303V352Q511 442 469 496T337 550Q248 550 206 496T164 352V303Q164 187 209 135T337 82Z" />
<glyph unicode="R" glyph-name="R" horiz-adv-x="599" d="M212 289V90H281V0H26V90H83V542H26V639H321Q433 639 491 591T550 451Q550 371 504 326T371 273L511 90H579V0H428L212 289ZM305 338Q370 338 395 363T420 440Q420 491 395 514T310 537H212V338H305Z" />
<glyph unicode="S" glyph-name="S" horiz-adv-x="531" d="M353 544Q334 549 315 551T276 554Q252 554 231 550T195 537T170 510T161 468Q161 446 170 430T203 403Q225 392 254 386T315 374T375 360T427 336Q465 312 481 276T498 188Q498 135 480 97T429 34T354
-3T261 -15Q178 -15 122 5T36 51V189H146V94Q170 87 196 83T250 79Q305 79 338 100T371 174Q371 197 363 211T332 237Q316 246 290 252T235 265T175 280T123 300Q80 324 61 364T42 458Q42 509 61 546T111 607T183 642T266 653Q336 653 386 637T462 596V461H353V544Z"
/>
<glyph unicode="T" glyph-name="T" horiz-adv-x="613" d="M478 538H371V90H444V0H169V90H242V538H135V426H28V639H585V426H478V538Z" />
<glyph unicode="U" glyph-name="U" horiz-adv-x="688" d="M409 639H664V542H613V262Q613 186 595 133T542 47T457 0T344 -15Q282 -15 232 0T148 48T95 134T76 263V542H24V639H279V542H205V240Q205 159 237 123T344 86Q419 86 451 122T483 239V542H409V639Z" />
<glyph unicode="V" glyph-name="V" horiz-adv-x="672" d="M418 639H652V542H607L430 0H238L63 542H20V639H272V542H198L345 67L492 542H418V639Z" />
<glyph unicode="W" glyph-name="W" horiz-adv-x="916" d="M458 483L347 0H178L59 542H20V639H270V542H193L276 112L400 639H540L665 112L749 542H671V639H897V542H858L740 0H573L458 483Z" />
<glyph unicode="X" glyph-name="X" horiz-adv-x="650" d="M367 90H429L312 269L192 90H260V0H23V90H72L232 328L85 542H38V639H295V542H234L339 387L443 542H380V639H610V542H562L418 332L578 90H627V0H367V90Z" />
<glyph unicode="Y" glyph-name="Y" horiz-adv-x="601" d="M20 639H269V542H202L314 334L426 542H359V639H581V542H537L367 235V90H440V0H165V90H238V233L63 542H20V639Z" />
<glyph unicode="Z" glyph-name="Z" horiz-adv-x="558" d="M52 639H527V511L156 92H417V185H525V0H30V124L393 538H161V449H52V639Z" />
<glyph unicode="[" glyph-name="bracketleft" horiz-adv-x="361" d="M66 673H332V582H179V-11H332V-98H66V673Z" />
<glyph unicode="\" glyph-name="backslash" horiz-adv-x="347" d="M120 673L348 -98H244L16 673H120Z" />
<glyph unicode="]" glyph-name="bracketright" horiz-adv-x="361" d="M29 -98V-11H182V582H29V673H295V-98H29Z" />
<glyph unicode="^" glyph-name="asciicircum" horiz-adv-x="426" d="M298 423L213 557L128 423H35L140 639H286L391 423H298Z" />
<glyph unicode="_" glyph-name="underscore" horiz-adv-x="367" d="M-8 -59H375V-139H-8V-59Z" />
<glyph unicode="`" glyph-name="grave" horiz-adv-x="400" d="M48 681H202L251 539H172L48 681Z" />
<glyph unicode="a" glyph-name="a" horiz-adv-x="510" d="M55 432Q64 441 79 452T116 474T169 490T239 497Q292 497 329 484T391 445T426 384T437 302V122Q437 102 444 92T474 82Q479 82 483 82T492 83V9Q485 5 474 1Q465 -2 453 -4T423 -7Q374 -7 346 16T313
88Q298 38 260 13T165 -13Q102 -13 63 20T24 114V115Q24 154 40 179T82 220T142 247T215 266Q268 279 289 292T311 334V336Q311 366 290 388T217 410Q201 410 187 408T160 403V326H55V432ZM219 62Q255 62 283 92T311 179V250Q297 237 280 228T240 209Q217 200 200
193T173 177T157 157T152 130V125Q152 95 169 79T219 62Z" />
<glyph unicode="b" glyph-name="b" horiz-adv-x="593" d="M21 673H200V372Q207 396 221 419T256 459T306 486T369 497Q416 497 452 479T514 429T553 351T566 251V250Q566 186 551 138T508 56T444 6T362 -11Q293 -11 252 23T193 119Q191 87 188 65T180 28Q176 11
170 0H21V90H74V576H21V673ZM325 76Q376 76 406 116T437 237V270Q437 333 408 368T325 404Q273 404 237 367T200 262V243Q200 199 210 168T237 116T276 86T325 76Z" />
<glyph unicode="c" glyph-name="c" horiz-adv-x="467" d="M324 406Q301 409 275 409Q251 409 229 402T189 378T162 334T152 267V238Q152 154 187 119T292 84Q335 84 373 98T434 125V46Q417 26 376 7T267 -12Q213 -12 169 5T92 55T42 135T24 244V245Q24 311 45
358T99 437T176 482T264 497Q333 497 372 483T429 450V328H324V406Z" />
<glyph unicode="d" glyph-name="d" horiz-adv-x="593" d="M419 0Q413 16 408 34Q403 50 400 71T395 115Q387 89 373 66T338 25T290 -2T226 -12Q179 -12 142 7T80 60T41 143T27 248V249Q27 310 43 356T86 433T151 480T231 496Q300 496 339 462T393 378V576H322V673H519V90H572V0H419ZM268
77Q293 77 316 87T356 118T383 166T393 231V249Q393 290 383 319T356 368T316 396T268 405Q217 405 186 371T155 266V232Q155 160 184 119T268 77Z" />
<glyph unicode="e" glyph-name="e" horiz-adv-x="497" d="M277 -11Q158 -11 91 53T24 243V244Q24 303 42 350T91 429T166 479T261 497Q315 497 354 481T420 438T458 373T471 293Q471 270 468 251T459 216H153Q155 178 165 153T195 113T242 92T306 85Q354 85 392
95T452 118V48Q436 26 391 8T277 -11ZM262 414Q214 414 185 381T153 280H357V290Q357 356 332 385T262 414Z" />
<glyph unicode="f" glyph-name="f" horiz-adv-x="356" d="M21 485H83V517Q83 562 97 593T133 643T182 671T237 680Q275 680 298 672T334 653V585Q325 587 311 588T283 589Q241 589 225 575T209 528V485H334V397H209V90H291V0H21V90H83V397H21V485Z" />
<glyph unicode="g" glyph-name="g" horiz-adv-x="591" d="M255 -155Q212 -155 180 -150T126 -136T88 -117T64 -96V-3Q75 -12 90 -21T125 -39T172 -53T235 -58Q311 -58 351 -22T391 84V135Q376 88 335 59T225 30Q128 30 77 93T25 263V264Q25 318 40 361T83 434T148
480T230 496Q299 496 338 469T398 385Q400 405 404 423T414 456Q419 472 425 485H570V379H517V94Q517 -31 449 -93T255 -155ZM265 109Q290 109 313 118T353 145T381 189T391 251V264Q391 335 355 370T267 405Q216 405 185 372T154 275V251Q154 183 182 146T265
109Z" />
<glyph unicode="h" glyph-name="h" horiz-adv-x="595" d="M334 90H398V320Q398 400 318 400Q267 400 235 365T200 262V90H266V0H21V90H74V576H21V673H200V364Q215 427 260 462T369 497Q441 497 483 455T525 326V90H574V0H334V90Z" />
<glyph unicode="i" glyph-name="i" horiz-adv-x="281" d="M21 485H204V90H260V0H21V90H77V379H21V485ZM137 534Q108 534 87 555T65 606Q65 635 86 656T137 678Q166 678 187 657T209 606Q209 576 188 555T137 534Z" />
<glyph unicode="j" glyph-name="j" horiz-adv-x="263" d="M21 485H204V-7Q204 -47 193 -75T164 -121T120 -147T66 -155Q28 -155 7 -148T-25 -132V-65Q-16 -67 -7 -67T16 -67Q47 -67 62 -58T77 -15V379H21V485ZM137 534Q108 534 87 555T65 606Q65 635 86 656T137
678Q166 678 187 657T209 606Q209 576 188 555T137 534Z" />
<glyph unicode="k" glyph-name="k" horiz-adv-x="534" d="M200 243V90H260V0H21V90H74V576H21V673H200V260L373 485H495V379H415L323 264L449 90H513V0H369L200 243Z" />
<glyph unicode="l" glyph-name="l" horiz-adv-x="282" d="M21 673H204V90H261V0H21V90H78V576H21V673Z" />
<glyph unicode="m" glyph-name="m" horiz-adv-x="881" d="M317 90H379V320Q379 362 363 381T309 400Q261 400 232 365T200 262V90H263V0H21V90H74V379H21V485H174Q181 469 186 451Q191 435 194 414T198 370V363Q213 426 256 461T359 497Q419 497 454 463T494 357Q511
425 558 461T664 497Q731 497 770 455T810 326V90H860V0H621V90H684V320Q684 362 668 381T614 400Q563 400 535 365T505 262V90H566V0H317V90Z" />
<glyph unicode="n" glyph-name="n" horiz-adv-x="595" d="M334 90H398V320Q398 400 318 400Q267 400 235 365T200 262V90H266V0H21V90H74V379H21V485H174Q181 469 186 451Q191 435 194 414T198 370V360Q213 424 258 460T369 497Q441 497 483 455T525 326V90H574V0H334V90Z"
/>
<glyph unicode="o" glyph-name="o" horiz-adv-x="542" d="M271 72Q296 72 317 80T355 107T380 157T390 234V270Q390 339 358 375T271 412Q217 412 185 376T153 270V234Q153 188 162 157T187 107T224 80T271 72ZM271 -11Q222 -11 178 4T99 50T45 131T24 248V250Q24
308 42 354T93 431T171 480T271 497Q325 497 370 480T448 432T499 355T518 251V249Q518 181 498 132T443 51T365 4T271 -11Z" />
<glyph unicode="p" glyph-name="p" horiz-adv-x="593" d="M21 485H174Q181 468 186 450Q191 434 194 413T198 368V363Q204 391 218 415T254 458T305 486T369 497Q416 497 452 479T514 429T553 351T566 251V250Q566 186 551 138T508 56T444 6T362 -11Q296 -11 256
20T200 106V-62H266V-146H21V-62H74V379H21V485ZM325 77Q377 77 407 115T437 238V271Q437 333 409 368T325 404Q299 404 277 395T237 367T210 323T200 263V244Q200 199 210 168T237 116T276 87T325 77Z" />
<glyph unicode="q" glyph-name="q" horiz-adv-x="593" d="M326 -62H393V110Q378 58 337 23T226 -12Q179 -12 142 7T80 60T41 143T27 248V249Q27 310 43 356T86 433T151 480T231 496Q300 496 339 465T400 378Q402 399 406 418T415 453Q420 471 427 485H572V379H519V-62H572V-146H326V-62ZM268
78Q293 78 316 88T356 119T383 167T393 232V250Q393 291 383 320T356 368T316 396T268 405Q217 405 186 372T155 266V232Q155 161 184 120T268 78Z" />
<glyph unicode="r" glyph-name="r" horiz-adv-x="401" d="M21 485H174Q181 468 186 448Q191 431 194 408T198 359V332Q206 378 220 408T252 457T290 484T331 492Q351 492 361 486T377 469V370Q334 371 301 364T246 337T212 284T200 199V90H278V0H21V90H74V379H21V485Z" />
<glyph unicode="s" glyph-name="s" horiz-adv-x="428" d="M278 412Q264 414 251 415T223 416Q182 416 159 402T136 356Q136 324 167 311Q185 304 208 301T254 294T300 285T341 268Q372 249 387 222T403 149Q403 109 389 79T348 28T286 -2T205 -13Q140 -13 96 2T25
39V141H128V77Q157 70 197 70Q245 70 267 84T290 133Q290 165 261 178Q248 184 228 187T186 195T140 204T98 219Q63 237 47 267T31 341Q31 383 46 413T87 461T147 488T221 497Q275 497 316 485T379 456V352H278V412Z" />
<glyph unicode="t" glyph-name="t" horiz-adv-x="388" d="M243 -13Q214 -13 186 -6T135 18T100 65T86 139V394H21V466Q52 468 71 477T103 505T122 552T137 619H213V485H358V394H213V163Q213 116 232 99T291 81Q311 81 327 85T361 95V33Q349 16 321 2T243 -13Z" />
<glyph unicode="u" glyph-name="u" horiz-adv-x="592" d="M321 485H518V90H571V0H418Q411 17 406 35Q401 51 398 71T395 113V119Q380 57 337 23T233 -12Q156 -12 114 32T71 172V379H21V485H197V174Q197 123 216 101T278 78Q329 78 360 115T392 222V379H321V485Z" />
<glyph unicode="v" glyph-name="v" horiz-adv-x="563" d="M325 485H547V379H499L362 0H205L63 379H16V485H258V379H194L297 84L393 379H325V485Z" />
<glyph unicode="w" glyph-name="w" horiz-adv-x="775" d="M391 349L312 0H153L60 379H16V485H249V383H182L247 87L337 485H461L558 87L618 383H548V485H759V379H715L627 0H471L391 349Z" />
<glyph unicode="x" glyph-name="x" horiz-adv-x="554" d="M286 83H355L257 199L157 83H233V0H21V90H59L187 238L72 379H21V485H266V386H214L298 280L379 386H321V485H533V379H476L367 241L495 90H533V0H286V83Z" />
<glyph unicode="y" glyph-name="y" horiz-adv-x="560" d="M323 485H544V379H495L355 1Q341 -40 324 -69T286 -118T238 -147T175 -156Q130 -156 106 -146T65 -120V-48Q84 -54 104 -58T152 -62Q193 -62 215 -47T249 -6L255 11H206L65 379H16V485H258V379H192L294
95L390 379H323V485Z" />
<glyph unicode="z" glyph-name="z" horiz-adv-x="470" d="M37 485H440V368L133 79H342V164H444V0H24V117L325 401H137V333H37V485Z" />
<glyph unicode="{" glyph-name="braceleft" horiz-adv-x="317" d="M95 288Q132 283 157 272T198 245T219 210T226 172Q226 152 223 134T215 98T208 63T204 29Q204 6 208 -10T221 -40T243 -66T275 -93V-98H178Q161 -93 145 -83T115 -58T93 -23T84 22Q84 44 89 64T102
104T114 141T120 176Q120 199 99 216T26 238V341Q77 345 98 362T120 403Q120 419 115 436T102 472T90 511T84 553Q84 578 92 598T114 633T144 658T178 673H275V668Q257 654 244 642T221 616T208 585T204 546Q204 529 207 513T215 479T222 444T226 406Q226 386 220
368T198 335T158 308T95 291V288Z" />
<glyph unicode="|" glyph-name="bar" horiz-adv-x="240" d="M172 -98H72V673H172V-98Z" />
<glyph unicode="}" glyph-name="braceright" horiz-adv-x="317" d="M222 291Q185 296 160 307T119 334T98 368T91 406Q91 426 94 444T102 479T109 512T113 546Q113 568 109 585T96 615T74 641T42 668V673H139Q156 668 172 658T202 633T224 598T233 553Q233 531
228 511T215 473T203 437T197 403Q197 380 218 363T291 341V238Q240 234 219 217T197 176Q197 159 202 142T215 105T227 65T233 22Q233 -3 225 -23T203 -58T173 -83T139 -98H42V-93Q60 -79 73 -67T96 -41T109 -11T113 29Q113 46 110 63T102 97T95 133T91 172Q91
191 97 210T119 244T159 271T222 288V291Z" />
<glyph unicode="~" glyph-name="asciitilde" horiz-adv-x="370" d="M49 208Q41 235 42 261T53 306T81 338T126 350Q147 350 163 344T192 331T215 318T236 312Q251 312 256 321T263 353H319Q327 326 326 301T316 256T290 224T247 212Q228 212 213 218T184 230T158
243T133 249Q119 249 114 240T106 208H49V208Z" />
<glyph unicode="&#x8e;" glyph-name="Zcaron" horiz-adv-x="558" d="M220 798L288 750L356 798H437L357 683H219L139 798H220ZM52 639H527V511L156 92H417V185H525V0H30V124L393 538H161V449H52V639Z" />
<glyph unicode="&#x9e;" glyph-name="zcaron" horiz-adv-x="470" d="M173 681L242 612L311 681H394L307 539H177L90 681H173ZM37 485H440V368L133 79H342V164H444V0H24V117L325 401H137V333H37V485Z" />
<glyph unicode="&#xa0;" glyph-name="uni00A0" horiz-adv-x="187" />
<glyph unicode="&#xa1;" glyph-name="exclamdown" horiz-adv-x="249" d="M85 297H165L198 -166H52L85 297ZM125 501Q156 501 179 479T202 425Q202 393 179 370T125 347Q109 347 95 353T70 370T53 395T47 425Q47 440 53 454T69 478T94 495T125 501Z" />
<glyph unicode="&#xa2;" glyph-name="cent" horiz-adv-x="469" d="M352 406Q344 408 336 408T320 410L278 79H293Q340 79 379 93T442 120V50Q425 27 382 8T269 -12H267L255 -107H191L204 -4Q123 15 75 79T26 244V245Q26 309 47 356T102 434T179 481T267 497L277
574H341L331 493Q371 487 397 475T436 448V337H352V406ZM148 238Q148 177 165 142T216 92L256 410Q233 407 214 398T180 371T157 329T148 268V238Z" />
<glyph unicode="&#xa3;" glyph-name="sterling" horiz-adv-x="510" d="M38 359H91V441Q91 490 106 529T149 596T216 638T304 653Q370 653 412 635T474 590V465H370V550Q358 552 346 553T319 555Q268 555 242 526T216 432V359H375V275H216V273Q216 205 185 166T99
102V101H370V167H477V0H25V139Q59 158 75 184T91 260V275H38V359Z" />
<glyph unicode="&#xa5;" glyph-name="yen" horiz-adv-x="552" d="M490 267H339V215H490V151H339V90H414V0H138V90H213V151H62V215H213V267H62V331H186L60 545H20V639H256V545H194L286 377L377 545H314V639H532V545H492L365 331H490V267Z" />
<glyph unicode="&#xa6;" glyph-name="brokenbar" horiz-adv-x="244" d="M172 261V-98H72V261H172ZM172 331H72V673H172V331Z" />
<glyph unicode="&#xa7;" glyph-name="section" horiz-adv-x="513" d="M420 508H320V564Q308 566 296 567T270 568Q232 568 208 555T183 512Q183 497 190 486T214 468Q233 461 258 456T311 444T367 431T421 411Q450 396 466 371T483 311Q483 261 454 231T373 191Q403
175 422 149T441 78Q441 39 428 10T389 -38T330 -68T254 -78Q187 -78 143 -64T71 -26V74H172V13Q186 10 202 9T237 8Q285 8 304 22T323 67Q323 95 290 109Q277 114 253 118T201 129T145 143T94 163Q29 197 29 268Q29 321 60 347T142 384Q110 400 93 427T75 500Q75
538 89 566T128 614T187 642T261 652Q318 652 358 640T420 607V508ZM309 224Q335 224 355 238T375 278Q375 298 365 309T333 326Q319 330 301 335T264 344T228 350T197 353Q170 353 150 339T129 299Q129 282 137 272T165 253Q177 248 194 243T232 233T272 227T309
224Z" />
<glyph unicode="&#xa8;" glyph-name="dieresis" horiz-adv-x="397" d="M104 538Q75 538 55 557T35 605Q35 632 55 651T104 671Q131 671 151 652T172 605Q172 577 152 558T104 538ZM293 538Q265 538 245 557T225 605Q225 632 245 651T293 671Q321 671 341 652T361
605Q361 577 341 558T293 538Z" />
<glyph unicode="&#xa9;" glyph-name="copyright" horiz-adv-x="738" d="M369 -14Q298 -14 237 12T130 83T60 188T34 317Q34 386 59 446T130 552T236 624T369 651Q441 651 502 625T608 553T678 447T704 317Q704 249 679 189T609 83T503 12T369 -14ZM369 37Q429
37 479 59T567 120T626 209T647 317Q647 374 626 425T568 516T480 577T369 600Q310 600 260 578T172 516T114 426T92 317Q92 260 113 209T172 120T259 60T369 37ZM381 137Q301 137 254 185T206 325V327Q206 409 251 458T375 507Q421 507 447 496T488 471V388H410V434Q405
434 399 434T388 435Q305 435 305 343V313Q305 256 327 230T392 204Q397 204 403 204T416 205V253H492V176Q480 162 453 150T381 137Z" />
<glyph unicode="&#xaa;" glyph-name="ordfeminine" horiz-adv-x="378" d="M42 600Q48 607 59 615T86 630T125 642T178 647Q258 647 291 610T324 506V386Q324 372 329 366T349 359Q357 359 360 360V302Q355 298 347 295Q340 293 331 291T308 289Q233 289 225 356Q203
286 121 286Q76 286 49 310T21 376V377Q21 404 32 422T61 451T104 470T155 483Q193 492 208 501T223 528V530Q223 550 209 565T160 580Q138 580 123 576V522H42V600ZM165 344Q189 344 206 363T223 421V471Q215 462 204 456T178 443Q149 431 136 421T123 389V385Q123
365 134 355T165 344Z" />
<glyph unicode="&#xab;" glyph-name="guillemotleft" horiz-adv-x="373" d="M207 407L117 244L207 80H107L20 243L107 407H207ZM263 244L353 80H253L166 243L253 407H353L263 244Z" />
<glyph unicode="&#xae;" glyph-name="registered" horiz-adv-x="369" d="M185 334Q151 334 122 346T72 380T38 430T26 491Q26 523 38 551T71 601T122 635T185 648Q219 648 248 636T298 602T331 552T343 491Q343 459 331 431T298 381T248 347T185 334ZM185 367Q212
367 234 376T272 403T297 442T306 491Q306 517 297 539T273 579T235 606T185 616Q158 616 136 606T97 579T71 540T62 491Q62 465 71 443T96 403T135 377T185 367ZM170 477V418H126V572H190Q219 572 235 560T252 525Q252 487 216 480L260 418H210L170 477ZM184 500Q198
500 203 505T208 521Q208 541 186 541H170V500H184Z" />
<glyph unicode="&#xaf;" glyph-name="macron" horiz-adv-x="400" d="M72 637H328V555H72V637Z" />
<glyph unicode="&#xb0;" glyph-name="degree" horiz-adv-x="358" d="M29 500Q29 531 40 558T72 605T119 637T178 649Q210 649 237 638T285 606T317 558T329 500Q329 469 318 442T286 395T238 363T178 351Q146 351 119 362T72 394T41 442T29 500ZM107 500Q107 463
127 442T178 420Q210 420 231 441T252 500Q252 535 231 558T178 581Q147 581 127 558T107 500Z" />
<glyph unicode="&#xb1;" glyph-name="plusminus" horiz-adv-x="476" d="M286 392H427V292H286V160H183V292H42V392H183V523H286V392ZM42 99H427V0H42V99Z" />
<glyph unicode="&#xb4;" glyph-name="acute" horiz-adv-x="400" d="M201 681H354L227 539H150L201 681Z" />
<glyph unicode="&#xb6;" glyph-name="paragraph" horiz-adv-x="533" d="M215 -98V280H211Q122 280 75 327T28 462Q28 545 73 592T203 639H508V542H450V-98H357V542H308V-98H215Z" />
<glyph unicode="&#xb7;" glyph-name="periodcentered" horiz-adv-x="248" d="M124 233Q92 233 69 256T46 311Q46 344 69 367T124 391Q156 391 179 368T202 311Q202 295 196 281T180 257T155 240T124 233Z" />
<glyph unicode="&#xb8;" glyph-name="cedilla" horiz-adv-x="400" d="M208 0V-38Q253 -42 273 -61T293 -112Q293 -150 266 -168T194 -187Q165 -187 147 -181T120 -166V-122Q128 -125 140 -128T169 -131Q209 -131 209 -107Q209 -95 196 -87T145 -78V0H208Z" />
<glyph unicode="&#xba;" glyph-name="ordmasculine" horiz-adv-x="400" d="M200 352Q216 352 229 357T253 375T270 408T276 461V486Q276 534 256 558T200 582Q166 582 145 558T123 486V461Q123 429 129 409T145 375T170 357T200 352ZM200 287Q165 287 133 297T75
330T36 387T21 470V472Q21 514 34 546T72 601T128 635T200 647Q239 647 271 636T328 602T365 547T379 473V471Q379 422 364 388T325 331T268 298T200 287Z" />
<glyph unicode="&#xbb;" glyph-name="guillemotright" horiz-adv-x="373" d="M166 80L256 243L166 407H266L353 244L266 80H166ZM110 243L20 407H120L207 244L120 80H20L110 243Z" />
<glyph unicode="&#xbc;" glyph-name="onequarter" horiz-adv-x="747" d="M180 0H97L586 639H669L180 0ZM680 382V170H726V108H680V63H726V0H542V63H587V108H414V185L563 382H680ZM479 170H587V312L479 170ZM35 327H99V565L22 486H21V575L90 645H197V327H252V263H35V327Z" />
<glyph unicode="&#xbd;" glyph-name="onehalf" horiz-adv-x="778" d="M178 0H95L584 639H667L178 0ZM482 97Q525 121 557 141T610 181T641 218T651 258Q651 289 633 300T587 312Q557 312 532 303T488 281V342Q504 359 534 374T612 390Q642 390 667 384T710 362T739
324T750 266Q750 202 692 156T535 72V70H680V105H755V0H482V97ZM35 327H99V565L22 486H21V575L90 645H197V327H252V263H35V327Z" />
<glyph unicode="&#xbe;" glyph-name="threequarters" horiz-adv-x="768" d="M198 0H115L604 639H687L198 0ZM702 382V170H748V108H702V63H748V0H564V63H609V108H436V185L585 382H702ZM501 170H609V312L501 170ZM153 653Q181 653 206 647T250 628T279 596T290 551Q290
514 265 490T188 460V458Q303 449 303 363Q303 310 261 284T147 257Q95 257 65 271T19 302V362Q39 347 65 338T133 328Q165 328 183 340T201 379Q201 428 130 428H88V489H129Q162 489 176 501T191 533Q191 576 127 576Q94 576 73 569T34 551V609Q49 627 78 640T153
653Z" />
<glyph unicode="&#xbf;" glyph-name="questiondown" horiz-adv-x="410" d="M153 1Q153 -41 174 -62T242 -84Q265 -84 286 -81V2H386V-117Q364 -140 322 -157T216 -175Q177 -175 143 -165T82 -135T41 -83T25 -8Q25 34 38 63T70 114T112 152T154 186T186 224T199
273V297H295V250Q295 199 273 167T224 110T175 61T153 1ZM162 425Q162 440 168 454T184 478T209 495T240 501Q271 501 294 479T317 425Q317 393 294 370T240 347Q224 347 210 353T185 370T168 395T162 425Z" />
<glyph unicode="&#xc0;" glyph-name="Agrave" horiz-adv-x="661" d="M20 90H62L237 639H428L600 90H642V0H388V90H463L435 186H206L177 90H251V0H20V90ZM234 278H407L321 567L234 278ZM185 798H342L380 683H299L185 798Z" />
<glyph unicode="&#xc1;" glyph-name="Aacute" horiz-adv-x="661" d="M20 90H62L237 639H428L600 90H642V0H388V90H463L435 186H206L177 90H251V0H20V90ZM234 278H407L321 567L234 278ZM322 798H479L365 683H284L322 798Z" />
<glyph unicode="&#xc2;" glyph-name="Acircumflex" horiz-adv-x="661" d="M20 90H62L237 639H428L600 90H642V0H388V90H463L435 186H206L177 90H251V0H20V90ZM234 278H407L321 567L234 278ZM400 683L332 731L264 683H183L263 798H401L481 683H400Z" />
<glyph unicode="&#xc3;" glyph-name="Atilde" horiz-adv-x="661" d="M20 90H62L237 639H428L600 90H642V0H388V90H463L435 186H206L177 90H251V0H20V90ZM234 278H407L321 567L234 278ZM191 681Q184 705 185 728T196 769T222 799T265 810Q287 810 305 805T339 793T368
782T392 776Q407 776 411 785T418 814H472Q479 790 478 767T468 726T442 696T401 685Q381 685 363 690T329 701T299 713T271 718Q257 718 252 710T245 681H191V681Z" />
<glyph unicode="&#xc4;" glyph-name="Adieresis" horiz-adv-x="661" d="M20 90H62L237 639H428L600 90H642V0H388V90H463L435 186H206L177 90H251V0H20V90ZM234 278H407L321 567L234 278ZM232 668Q204 668 184 687T164 735Q164 762 184 781T232 801Q260 801 280
782T300 735Q300 707 280 688T232 668ZM431 668Q403 668 383 687T363 735Q363 762 383 781T431 801Q459 801 479 782T500 735Q500 707 480 688T431 668Z" />
<glyph unicode="&#xc5;" glyph-name="Aring" horiz-adv-x="661" d="M20 90H62L237 639H428L600 90H642V0H388V90H463L435 186H206L177 90H251V0H20V90ZM234 278H407L321 567L234 278ZM331 714Q350 714 362 726T375 760Q375 781 363 794T331 808Q314 808 301 795T288
760Q288 739 301 727T331 714ZM331 661Q310 661 292 668T260 689T239 721T231 760Q231 781 238 799T259 831T291 853T331 861Q352 861 371 853T403 832T425 800T433 760Q433 739 425 721T404 690T371 669T331 661Z" />
<glyph unicode="&#xc6;" glyph-name="AE" horiz-adv-x="868" d="M721 534H538V363H747V267H538V93H729V185H835V0H351V90H408V185H211L173 90H246V0H20V90H60L242 542H178V639H828V449H721V534ZM249 278H408V542H355L249 278Z" />
<glyph unicode="&#xc7;" glyph-name="Ccedilla" horiz-adv-x="588" d="M429 540Q409 545 387 547T340 550Q250 550 208 499T166 351V309Q166 192 213 138T350 83Q396 83 440 95V193H549V60Q537 47 518 34T472 10T413 -8T340 -15H327V-38Q372 -42 392 -61T413 -112Q413
-150 386 -168T313 -187Q284 -187 266 -181T239 -166V-122Q247 -125 259 -128T289 -131Q329 -131 329 -107Q329 -95 316 -87T264 -78V-7Q237 -2 213 7Q156 30 116 73T53 179T31 324V326Q31 401 51 461T109 564T203 630T330 653Q413 653 465 631T541 584V449H429V540Z"
/>
<glyph unicode="&#xc8;" glyph-name="Egrave" horiz-adv-x="564" d="M147 798H304L342 683H261L147 798ZM417 535H212V363H443V267H212V93H425V185H531V0H26V90H83V542H26V639H524V449H417V535Z" />
<glyph unicode="&#xc9;" glyph-name="Eacute" horiz-adv-x="564" d="M279 798H436L322 683H241L279 798ZM417 535H212V363H443V267H212V93H425V185H531V0H26V90H83V542H26V639H524V449H417V535Z" />
<glyph unicode="&#xca;" glyph-name="Ecircumflex" horiz-adv-x="564" d="M362 683L294 731L226 683H145L225 798H363L443 683H362ZM417 535H212V363H443V267H212V93H425V185H531V0H26V90H83V542H26V639H524V449H417V535Z" />
<glyph unicode="&#xcb;" glyph-name="Edieresis" horiz-adv-x="564" d="M417 535H212V363H443V267H212V93H425V185H531V0H26V90H83V542H26V639H524V449H417V535ZM195 668Q167 668 147 687T127 735Q127 762 147 781T195 801Q223 801 243 782T263 735Q263 707 243
688T195 668ZM394 668Q366 668 346 687T326 735Q326 762 346 781T394 801Q422 801 442 782T463 735Q463 707 443 688T394 668Z" />
<glyph unicode="&#xcc;" glyph-name="Igrave" horiz-adv-x="307" d="M26 639H281V542H218V90H281V0H26V90H89V542H26V639ZM263 798H420L458 683H377L263 798Z" />
<glyph unicode="&#xcd;" glyph-name="Iacute" horiz-adv-x="307" d="M26 639H281V542H218V90H281V0H26V90H89V542H26V639ZM400 798H557L443 683H362L400 798Z" />
<glyph unicode="&#xce;" glyph-name="Icircumflex" horiz-adv-x="307" d="M26 639H281V542H218V90H281V0H26V90H89V542H26V639ZM478 683L410 731L342 683H261L341 798H479L559 683H478Z" />
<glyph unicode="&#xcf;" glyph-name="Idieresis" horiz-adv-x="307" d="M26 639H281V542H218V90H281V0H26V90H89V542H26V639ZM311 668Q283 668 263 687T243 735Q243 762 263 781T311 801Q339 801 359 782T379 735Q379 707 359 688T311 668ZM510 668Q482 668 462
687T442 735Q442 762 462 781T510 801Q538 801 558 782T579 735Q579 707 559 688T510 668Z" />
<glyph unicode="&#xd0;" glyph-name="Eth" horiz-adv-x="650" d="M21 364H83V542H26V639H331Q471 639 545 560T620 328V326Q620 243 599 182T539 80T442 20T312 0H26V90H83V271H21V364ZM301 95Q352 95 387 109T444 151T475 217T485 308V355Q485 397 478 430T451
486T401 522T321 534H210V364H358V271H210V95H301Z" />
<glyph unicode="&#xd1;" glyph-name="Ntilde" horiz-adv-x="699" d="M224 681Q217 705 218 728T229 769T255 799T298 810Q320 810 338 805T372 793T401 782T425 776Q440 776 444 785T451 814H505Q512 790 511 767T501 726T475 696T434 685Q414 685 396 690T362
701T332 713T304 718Q290 718 285 710T278 681H224V681ZM435 639H676V542H619V0H446L192 524V90H274V0H26V90H83V542H26V639H274L510 142V542H435V639Z" />
<glyph unicode="&#xd2;" glyph-name="Ograve" horiz-adv-x="674" d="M190 798H347L385 683H304L190 798ZM337 83Q421 83 465 135T509 303V352Q509 442 468 496T337 550Q248 550 207 496T165 352V303Q165 187 209 135T337 83ZM337 -15Q273 -15 217 6T120 69T55
174T31 321V323Q31 398 52 459T112 563T208 629T337 653Q409 653 466 630T562 563T623 459T644 323V321Q644 237 621 174T556 69T458 6T337 -15Z" />
<glyph unicode="&#xd3;" glyph-name="Oacute" horiz-adv-x="674" d="M327 798H484L370 683H289L327 798ZM337 83Q421 83 465 135T509 303V352Q509 442 468 496T337 550Q248 550 207 496T165 352V303Q165 187 209 135T337 83ZM337 -15Q273 -15 217 6T120 69T55
174T31 321V323Q31 398 52 459T112 563T208 629T337 653Q409 653 466 630T562 563T623 459T644 323V321Q644 237 621 174T556 69T458 6T337 -15Z" />
<glyph unicode="&#xd4;" glyph-name="Ocircumflex" horiz-adv-x="674" d="M405 683L337 731L269 683H188L268 798H406L486 683H405ZM337 83Q421 83 465 135T509 303V352Q509 442 468 496T337 550Q248 550 207 496T165 352V303Q165 187 209 135T337 83ZM337 -15Q273
-15 217 6T120 69T55 174T31 321V323Q31 398 52 459T112 563T208 629T337 653Q409 653 466 630T562 563T623 459T644 323V321Q644 237 621 174T556 69T458 6T337 -15Z" />
<glyph unicode="&#xd5;" glyph-name="Otilde" horiz-adv-x="674" d="M197 681Q190 705 191 728T202 769T228 799T271 810Q293 810 311 805T345 793T374 782T398 776Q413 776 417 785T424 814H478Q485 790 484 767T474 726T448 696T407 685Q387 685 369 690T335
701T305 713T277 718Q263 718 258 710T251 681H197V681ZM337 83Q421 83 465 135T509 303V352Q509 442 468 496T337 550Q248 550 207 496T165 352V303Q165 187 209 135T337 83ZM337 -15Q273 -15 217 6T120 69T55 174T31 321V323Q31 398 52 459T112 563T208 629T337
653Q409 653 466 630T562 563T623 459T644 323V321Q644 237 621 174T556 69T458 6T337 -15Z" />
<glyph unicode="&#xd6;" glyph-name="Odieresis" horiz-adv-x="674" d="M238 668Q210 668 190 687T170 735Q170 762 190 781T238 801Q266 801 286 782T306 735Q306 707 286 688T238 668ZM437 668Q409 668 389 687T369 735Q369 762 389 781T437 801Q465 801 485
782T506 735Q506 707 486 688T437 668ZM337 83Q421 83 465 135T509 303V352Q509 442 468 496T337 550Q248 550 207 496T165 352V303Q165 187 209 135T337 83ZM337 -15Q273 -15 217 6T120 69T55 174T31 321V323Q31 398 52 459T112 563T208 629T337 653Q409 653 466
630T562 563T623 459T644 323V321Q644 237 621 174T556 69T458 6T337 -15Z" />
<glyph unicode="&#xd7;" glyph-name="multiply" horiz-adv-x="459" d="M160 304L41 424L110 493L229 373L347 491L416 422L298 304L418 184L349 115L229 235L112 117L43 186L160 304Z" />
<glyph unicode="&#xd8;" glyph-name="Oslash" horiz-adv-x="674" d="M338 -15Q287 -15 241 -2T157 38L112 -19H25L106 84Q71 126 51 184T31 321V323Q31 398 52 459T112 563T209 629T338 653Q391 653 435 640T515 603L557 656H643L566 558Q604 515 624 456T644
323V321Q644 237 621 174T556 69T459 6T338 -15ZM338 83Q421 83 466 135T512 303V352Q512 421 493 466L219 117Q239 99 268 91T338 83ZM163 303Q163 225 179 177L450 521Q410 550 338 550Q249 550 206 496T163 352V303Z" />
<glyph unicode="&#xd9;" glyph-name="Ugrave" horiz-adv-x="688" d="M197 798H354L392 683H311L197 798ZM409 639H664V542H613V262Q613 186 595 133T542 47T457 0T344 -15Q282 -15 232 0T148 48T95 134T76 263V542H24V639H279V542H205V240Q205 159 237 123T344
86Q419 86 451 122T483 239V542H409V639Z" />
<glyph unicode="&#xda;" glyph-name="Uacute" horiz-adv-x="688" d="M334 798H491L377 683H296L334 798ZM409 639H664V542H613V262Q613 186 595 133T542 47T457 0T344 -15Q282 -15 232 0T148 48T95 134T76 263V542H24V639H279V542H205V240Q205 159 237 123T344
86Q419 86 451 122T483 239V542H409V639Z" />
<glyph unicode="&#xdb;" glyph-name="Ucircumflex" horiz-adv-x="688" d="M412 683L344 731L276 683H195L275 798H413L493 683H412ZM409 639H664V542H613V262Q613 186 595 133T542 47T457 0T344 -15Q282 -15 232 0T148 48T95 134T76 263V542H24V639H279V542H205V240Q205
159 237 123T344 86Q419 86 451 122T483 239V542H409V639Z" />
<glyph unicode="&#xdc;" glyph-name="Udieresis" horiz-adv-x="688" d="M409 639H664V542H613V262Q613 186 595 133T542 47T457 0T344 -15Q282 -15 232 0T148 48T95 134T76 263V542H24V639H279V542H205V240Q205 159 237 123T344 86Q419 86 451 122T483 239V542H409V639ZM245
668Q217 668 197 687T177 735Q177 762 197 781T245 801Q273 801 293 782T313 735Q313 707 293 688T245 668ZM444 668Q416 668 396 687T376 735Q376 762 396 781T444 801Q472 801 492 782T513 735Q513 707 493 688T444 668Z" />
<glyph unicode="&#xdd;" glyph-name="Yacute" horiz-adv-x="601" d="M20 639H269V542H202L314 334L426 542H359V639H581V542H537L367 235V90H440V0H165V90H238V233L63 542H20V639ZM310 798H467L353 683H272L310 798Z" />
<glyph unicode="&#xde;" glyph-name="Thorn" horiz-adv-x="578" d="M26 639H301V546H212V489H363Q454 489 503 445T553 320Q553 239 500 195T353 150H212V86H301V0H26V90H83V542H26V639ZM329 239Q380 239 403 258T426 316Q426 389 340 389H212V239H329Z" />
<glyph unicode="&#xdf;" glyph-name="germandbls" horiz-adv-x="605" d="M21 485H83Q84 534 102 570T152 631T225 668T319 680Q360 680 396 672T460 646T503 600T519 533Q519 495 497 467T447 417T398 379T375 348Q375 334 384 328T412 314Q436 303 465 293T514
271Q546 253 565 223T585 143Q585 66 541 27T408 -13Q356 -13 320 0T258 33V140H360V74Q369 73 378 73T398 72Q430 72 450 85T470 131Q470 148 461 160T436 181Q418 190 393 198T336 220Q264 251 264 324Q264 347 274 366T299 401T332 432T365 462T390 493T400
529Q400 559 378 576T316 593Q265 593 237 563T209 469V8H191V0H21V90H83V397H21V485Z" />
<glyph unicode="&#xe0;" glyph-name="agrave" horiz-adv-x="510" d="M55 432Q64 441 79 452T116 474T169 490T239 497Q292 497 329 484T391 445T426 384T437 302V122Q437 102 444 92T474 82Q479 82 483 82T492 83V9Q485 5 474 1Q465 -2 453 -4T423 -7Q374 -7 346
16T313 88Q298 38 260 13T165 -13Q102 -13 63 20T24 114V115Q24 154 40 179T82 220T142 247T215 266Q268 279 289 292T311 334V336Q311 366 290 388T217 410Q201 410 187 408T160 403V326H55V432ZM219 62Q255 62 283 92T311 179V250Q297 237 280 228T240 209Q217
200 200 193T173 177T157 157T152 130V125Q152 95 169 79T219 62ZM95 681H249L298 539H219L95 681Z" />
<glyph unicode="&#xe1;" glyph-name="aacute" horiz-adv-x="510" d="M55 432Q64 441 79 452T116 474T169 490T239 497Q292 497 329 484T391 445T426 384T437 302V122Q437 102 444 92T474 82Q479 82 483 82T492 83V9Q485 5 474 1Q465 -2 453 -4T423 -7Q374 -7 346
16T313 88Q298 38 260 13T165 -13Q102 -13 63 20T24 114V115Q24 154 40 179T82 220T142 247T215 266Q268 279 289 292T311 334V336Q311 366 290 388T217 410Q201 410 187 408T160 403V326H55V432ZM219 62Q255 62 283 92T311 179V250Q297 237 280 228T240 209Q217
200 200 193T173 177T157 157T152 130V125Q152 95 169 79T219 62ZM243 681H396L269 539H192L243 681Z" />
<glyph unicode="&#xe2;" glyph-name="acircumflex" horiz-adv-x="510" d="M55 432Q64 441 79 452T116 474T169 490T239 497Q292 497 329 484T391 445T426 384T437 302V122Q437 102 444 92T474 82Q479 82 483 82T492 83V9Q485 5 474 1Q465 -2 453 -4T423 -7Q374
-7 346 16T313 88Q298 38 260 13T165 -13Q102 -13 63 20T24 114V115Q24 154 40 179T82 220T142 247T215 266Q268 279 289 292T311 334V336Q311 366 290 388T217 410Q201 410 187 408T160 403V326H55V432ZM219 62Q255 62 283 92T311 179V250Q297 237 280 228T240
209Q217 200 200 193T173 177T157 157T152 130V125Q152 95 169 79T219 62ZM182 681H312L399 539H316L247 608L178 539H95L182 681Z" />
<glyph unicode="&#xe3;" glyph-name="atilde" horiz-adv-x="510" d="M55 432Q64 441 79 452T116 474T169 490T239 497Q292 497 329 484T391 445T426 384T437 302V122Q437 102 444 92T474 82Q479 82 483 82T492 83V9Q485 5 474 1Q465 -2 453 -4T423 -7Q374 -7 346
16T313 88Q298 38 260 13T165 -13Q102 -13 63 20T24 114V115Q24 154 40 179T82 220T142 247T215 266Q268 279 289 292T311 334V336Q311 366 290 388T217 410Q201 410 187 408T160 403V326H55V432ZM219 62Q255 62 283 92T311 179V250Q297 237 280 228T240 209Q217
200 200 193T173 177T157 157T152 130V125Q152 95 169 79T219 62ZM106 551Q99 575 99 598T109 639T135 669T179 681Q200 681 217 676T248 664T273 653T296 647Q310 647 314 656T321 685H375Q381 661 381 638T373 597T348 567T306 555Q287 555 271 560T239 572T211
583T186 589Q172 589 167 580T159 551H106V551Z" />
<glyph unicode="&#xe4;" glyph-name="adieresis" horiz-adv-x="510" d="M55 432Q64 441 79 452T116 474T169 490T239 497Q292 497 329 484T391 445T426 384T437 302V122Q437 102 444 92T474 82Q479 82 483 82T492 83V9Q485 5 474 1Q465 -2 453 -4T423 -7Q374 -7
346 16T313 88Q298 38 260 13T165 -13Q102 -13 63 20T24 114V115Q24 154 40 179T82 220T142 247T215 266Q268 279 289 292T311 334V336Q311 366 290 388T217 410Q201 410 187 408T160 403V326H55V432ZM219 62Q255 62 283 92T311 179V250Q297 237 280 228T240 209Q217
200 200 193T173 177T157 157T152 130V125Q152 95 169 79T219 62ZM152 538Q123 538 103 557T83 605Q83 632 103 651T152 671Q179 671 199 652T220 605Q220 577 200 558T152 538ZM341 538Q313 538 293 557T273 605Q273 632 293 651T341 671Q369 671 389 652T409
605Q409 577 389 558T341 538Z" />
<glyph unicode="&#xe5;" glyph-name="aring" horiz-adv-x="510" d="M55 432Q64 441 79 452T116 474T169 490T239 497Q292 497 329 484T391 445T426 384T437 302V122Q437 102 444 92T474 82Q479 82 483 82T492 83V9Q485 5 474 1Q465 -2 453 -4T423 -7Q374 -7 346
16T313 88Q298 38 260 13T165 -13Q102 -13 63 20T24 114V115Q24 154 40 179T82 220T142 247T215 266Q268 279 289 292T311 334V336Q311 366 290 388T217 410Q201 410 187 408T160 403V326H55V432ZM219 62Q255 62 283 92T311 179V250Q297 237 280 228T240 209Q217
200 200 193T173 177T157 157T152 130V125Q152 95 169 79T219 62ZM244 589Q263 589 276 601T289 636Q289 657 276 670T244 684Q227 684 214 671T201 636Q201 614 214 602T244 589ZM244 536Q223 536 205 544T173 565T152 597T144 636Q144 657 151 675T172 707T204
729T244 737Q265 737 284 729T316 707T338 675T346 636Q346 615 338 597T317 566T284 544T244 536Z" />
<glyph unicode="&#xe6;" glyph-name="ae" horiz-adv-x="781" d="M174 -13Q105 -13 65 21T24 116V117Q24 155 39 180T81 221T141 247T214 266Q267 279 288 292T309 334V336Q309 366 288 388T215 410Q200 410 186 408T159 403V326H53V432Q62 441 77 452T114 474T167
490T236 497Q297 497 333 478T388 423Q415 458 455 477T548 497Q601 497 640 481T705 438T743 373T756 293Q756 270 753 251T744 216H438Q440 178 450 153T480 113T527 92T591 85Q639 85 677 95T737 118V48Q721 26 676 8T562 -11Q480 -11 424 19T338 110Q322 40
279 14T174 -13ZM547 414Q499 414 470 381T438 280H642V290Q642 356 617 385T547 414ZM219 62Q256 62 283 92T311 179V250Q297 237 280 228T240 209Q217 200 200 193T173 177T157 157T152 130V125Q152 95 169 79T219 62Z" />
<glyph unicode="&#xe7;" glyph-name="ccedilla" horiz-adv-x="467" d="M324 406Q301 409 275 409Q251 409 229 402T189 378T162 334T152 267V238Q152 154 187 119T292 84Q335 84 373 98T434 125V46Q417 26 376 7T267 -12H254V-38Q299 -42 319 -61T339 -112Q339
-150 312 -168T240 -187Q211 -187 193 -181T166 -166V-122Q174 -125 186 -128T215 -131Q255 -131 255 -107Q255 -95 242 -87T191 -78V-2Q179 1 168 5Q124 22 92 55T42 135T24 244V245Q24 311 45 358T99 437T176 482T264 497Q333 497 372 483T429 450V328H324V406Z"
/>
<glyph unicode="&#xe8;" glyph-name="egrave" horiz-adv-x="497" d="M277 -11Q158 -11 91 53T24 243V244Q24 303 42 350T91 429T166 479T261 497Q315 497 354 481T420 438T458 373T471 293Q471 270 468 251T459 216H153Q155 178 165 153T195 113T242 92T306 85Q354
85 392 95T452 118V48Q436 26 391 8T277 -11ZM262 414Q214 414 185 381T153 280H357V290Q357 356 332 385T262 414ZM113 681H267L316 539H237L113 681Z" />
<glyph unicode="&#xe9;" glyph-name="eacute" horiz-adv-x="497" d="M263 681H416L289 539H212L263 681ZM277 -11Q158 -11 91 53T24 243V244Q24 303 42 350T91 429T166 479T261 497Q315 497 354 481T420 438T458 373T471 293Q471 270 468 251T459 216H153Q155
178 165 153T195 113T242 92T306 85Q354 85 392 95T452 118V48Q436 26 391 8T277 -11ZM262 414Q214 414 185 381T153 280H357V290Q357 356 332 385T262 414Z" />
<glyph unicode="&#xea;" glyph-name="ecircumflex" horiz-adv-x="497" d="M195 681H325L412 539H329L260 608L191 539H108L195 681ZM277 -11Q158 -11 91 53T24 243V244Q24 303 42 350T91 429T166 479T261 497Q315 497 354 481T420 438T458 373T471 293Q471 270
468 251T459 216H153Q155 178 165 153T195 113T242 92T306 85Q354 85 392 95T452 118V48Q436 26 391 8T277 -11ZM262 414Q214 414 185 381T153 280H357V290Q357 356 332 385T262 414Z" />
<glyph unicode="&#xeb;" glyph-name="edieresis" horiz-adv-x="497" d="M165 538Q136 538 116 557T96 605Q96 632 116 651T165 671Q192 671 212 652T233 605Q233 577 213 558T165 538ZM354 538Q326 538 306 557T286 605Q286 632 306 651T354 671Q382 671 402 652T422
605Q422 577 402 558T354 538ZM277 -11Q158 -11 91 53T24 243V244Q24 303 42 350T91 429T166 479T261 497Q315 497 354 481T420 438T458 373T471 293Q471 270 468 251T459 216H153Q155 178 165 153T195 113T242 92T306 85Q354 85 392 95T452 118V48Q436 26 391
8T277 -11ZM262 414Q214 414 185 381T153 280H357V290Q357 356 332 385T262 414Z" />
<glyph unicode="&#xec;" glyph-name="igrave" horiz-adv-x="281" d="M21 485H204V90H260V0H21V90H77V379H21V485ZM234 681H388L437 539H358L234 681Z" />
<glyph unicode="&#xed;" glyph-name="iacute" horiz-adv-x="281" d="M387 681H540L413 539H336L387 681ZM21 485H204V90H260V0H21V90H77V379H21V485Z" />
<glyph unicode="&#xee;" glyph-name="icircumflex" horiz-adv-x="281" d="M321 681H451L538 539H455L386 608L317 539H234L321 681ZM21 485H204V90H260V0H21V90H77V379H21V485Z" />
<glyph unicode="&#xef;" glyph-name="idieresis" horiz-adv-x="281" d="M44 538Q16 538 -4 557T-24 605Q-24 632 -4 651T44 671Q72 671 92 652T112 605Q112 577 92 558T44 538ZM214 538Q187 538 167 557T146 605Q146 632 166 651T214 671Q243 671 263 652T283
605Q283 577 263 558T214 538ZM21 485H204V90H260V0H21V90H77V379H21V485Z" />
<glyph unicode="&#xf0;" glyph-name="eth" horiz-adv-x="546" d="M73 560L190 597Q160 618 129 636T69 668V673H247Q261 665 276 656T309 635L412 668L433 614L363 592Q393 565 421 531T470 457T505 369T518 269V249Q518 181 498 132T443 51T364 4T271 -11Q223
-11 178 4T99 50T45 131T24 248V250Q24 308 40 352T83 426T146 471T222 486Q267 486 299 469T355 423L356 424Q336 461 308 493T246 554L94 506L73 560ZM271 72Q295 72 317 80T355 107T380 157T390 234V270Q390 339 357 375T271 412Q218 412 186 376T153 270V234Q153
188 162 157T188 107T225 80T271 72Z" />
<glyph unicode="&#xf1;" glyph-name="ntilde" horiz-adv-x="595" d="M334 90H398V320Q398 400 318 400Q267 400 235 365T200 262V90H266V0H21V90H74V379H21V485H174Q181 469 186 451Q191 435 194 414T198 370V360Q213 424 258 460T369 497Q441 497 483 455T525
326V90H574V0H334V90ZM155 551Q148 575 148 598T158 639T184 669T228 681Q249 681 266 676T297 664T322 653T345 647Q359 647 363 656T370 685H424Q430 661 430 638T422 597T397 567T355 555Q336 555 320 560T288 572T260 583T235 589Q221 589 216 580T208 551H155V551Z"
/>
<glyph unicode="&#xf2;" glyph-name="ograve" horiz-adv-x="542" d="M271 72Q296 72 317 80T355 107T380 157T390 234V270Q390 339 358 375T271 412Q217 412 185 376T153 270V234Q153 188 162 157T187 107T224 80T271 72ZM271 -11Q222 -11 178 4T99 50T45 131T24
248V250Q24 308 42 354T93 431T171 480T271 497Q325 497 370 480T448 432T499 355T518 251V249Q518 181 498 132T443 51T365 4T271 -11ZM119 681H273L322 539H243L119 681Z" />
<glyph unicode="&#xf3;" glyph-name="oacute" horiz-adv-x="542" d="M272 681H425L298 539H221L272 681ZM271 72Q296 72 317 80T355 107T380 157T390 234V270Q390 339 358 375T271 412Q217 412 185 376T153 270V234Q153 188 162 157T187 107T224 80T271 72ZM271
-11Q222 -11 178 4T99 50T45 131T24 248V250Q24 308 42 354T93 431T171 480T271 497Q325 497 370 480T448 432T499 355T518 251V249Q518 181 498 132T443 51T365 4T271 -11Z" />
<glyph unicode="&#xf4;" glyph-name="ocircumflex" horiz-adv-x="542" d="M206 681H336L423 539H340L271 608L202 539H119L206 681ZM271 72Q296 72 317 80T355 107T380 157T390 234V270Q390 339 358 375T271 412Q217 412 185 376T153 270V234Q153 188 162 157T187
107T224 80T271 72ZM271 -11Q222 -11 178 4T99 50T45 131T24 248V250Q24 308 42 354T93 431T171 480T271 497Q325 497 370 480T448 432T499 355T518 251V249Q518 181 498 132T443 51T365 4T271 -11Z" />
<glyph unicode="&#xf5;" glyph-name="otilde" horiz-adv-x="542" d="M271 72Q296 72 317 80T355 107T380 157T390 234V270Q390 339 358 375T271 412Q217 412 185 376T153 270V234Q153 188 162 157T187 107T224 80T271 72ZM271 -11Q222 -11 178 4T99 50T45 131T24
248V250Q24 308 42 354T93 431T171 480T271 497Q325 497 370 480T448 432T499 355T518 251V249Q518 181 498 132T443 51T365 4T271 -11ZM136 551Q129 575 129 598T139 639T165 669T209 681Q230 681 247 676T278 664T303 653T326 647Q340 647 344 656T351 685H405Q411
661 411 638T403 597T378 567T336 555Q317 555 301 560T269 572T241 583T216 589Q202 589 197 580T189 551H136V551Z" />
<glyph unicode="&#xf6;" glyph-name="odieresis" horiz-adv-x="542" d="M177 538Q148 538 128 557T108 605Q108 632 128 651T177 671Q204 671 224 652T245 605Q245 577 225 558T177 538ZM366 538Q338 538 318 557T298 605Q298 632 318 651T366 671Q394 671 414
652T434 605Q434 577 414 558T366 538ZM271 72Q296 72 317 80T355 107T380 157T390 234V270Q390 339 358 375T271 412Q217 412 185 376T153 270V234Q153 188 162 157T187 107T224 80T271 72ZM271 -11Q222 -11 178 4T99 50T45 131T24 248V250Q24 308 42 354T93 431T171
480T271 497Q325 497 370 480T448 432T499 355T518 251V249Q518 181 498 132T443 51T365 4T271 -11Z" />
<glyph unicode="&#xf7;" glyph-name="divide" horiz-adv-x="476" d="M430 363V264H46V363H430ZM240 79Q212 79 192 99T171 149Q171 178 191 198T240 219Q269 219 289 199T310 149Q310 120 290 100T240 79ZM240 407Q212 407 192 427T171 476Q171 505 191 526T240
547Q269 547 289 526T310 476Q310 447 290 427T240 407Z" />
<glyph unicode="&#xf8;" glyph-name="oslash" horiz-adv-x="542" d="M271 -11Q233 -11 198 -3T132 25L96 -19H24L88 61Q59 93 42 139T24 248V250Q24 308 42 354T93 431T171 480T271 497Q311 497 346 488T410 461L443 501H516L455 425Q485 393 501 350T518 251V249Q518
181 498 132T443 51T365 4T271 -11ZM271 71Q296 71 317 79T355 107T381 157T391 234V270Q391 306 383 336L189 97Q204 83 224 77T271 71ZM151 234Q151 183 160 150L351 387Q323 412 271 412Q217 412 184 376T151 270V234Z" />
<glyph unicode="&#xf9;" glyph-name="ugrave" horiz-adv-x="592" d="M321 485H518V90H571V0H418Q411 17 406 35Q401 51 398 71T395 113V119Q380 57 337 23T233 -12Q156 -12 114 32T71 172V379H21V485H197V174Q197 123 216 101T278 78Q329 78 360 115T392 222V379H321V485ZM135
681H289L338 539H259L135 681Z" />
<glyph unicode="&#xfa;" glyph-name="uacute" horiz-adv-x="592" d="M286 681H439L312 539H235L286 681ZM321 485H518V90H571V0H418Q411 17 406 35Q401 51 398 71T395 113V119Q380 57 337 23T233 -12Q156 -12 114 32T71 172V379H21V485H197V174Q197 123 216 101T278
78Q329 78 360 115T392 222V379H321V485Z" />
<glyph unicode="&#xfb;" glyph-name="ucircumflex" horiz-adv-x="592" d="M222 681H352L439 539H356L287 608L218 539H135L222 681ZM321 485H518V90H571V0H418Q411 17 406 35Q401 51 398 71T395 113V119Q380 57 337 23T233 -12Q156 -12 114 32T71 172V379H21V485H197V174Q197
123 216 101T278 78Q329 78 360 115T392 222V379H321V485Z" />
<glyph unicode="&#xfc;" glyph-name="udieresis" horiz-adv-x="592" d="M192 538Q163 538 143 557T123 605Q123 632 143 651T192 671Q219 671 239 652T260 605Q260 577 240 558T192 538ZM381 538Q353 538 333 557T313 605Q313 632 333 651T381 671Q409 671 429
652T449 605Q449 577 429 558T381 538ZM321 485H518V90H571V0H418Q411 17 406 35Q401 51 398 71T395 113V119Q380 57 337 23T233 -12Q156 -12 114 32T71 172V379H21V485H197V174Q197 123 216 101T278 78Q329 78 360 115T392 222V379H321V485Z" />
<glyph unicode="&#xfd;" glyph-name="yacute" horiz-adv-x="560" d="M323 485H544V379H495L355 1Q341 -40 324 -69T286 -118T238 -147T175 -156Q130 -156 106 -146T65 -120V-48Q84 -54 104 -58T152 -62Q193 -62 215 -47T249 -6L255 11H206L65 379H16V485H258V379H192L294
95L390 379H323V485ZM292 681H445L318 539H241L292 681Z" />
<glyph unicode="&#xfe;" glyph-name="thorn" horiz-adv-x="584" d="M353 -11Q287 -11 247 21T191 106V-62H257V-146H12V-62H65V576H12V673H191V372Q198 396 212 419T247 459T297 486T360 497Q407 497 443 479T505 429T544 351T557 251V250Q557 186 542 138T499
56T435 6T353 -11ZM316 76Q367 76 397 116T428 237V270Q428 333 399 368T316 404Q264 404 228 367T191 262V243Q191 199 201 168T228 116T267 86T316 76Z" />
<glyph unicode="&#xff;" glyph-name="ydieresis" horiz-adv-x="560" d="M323 485H544V379H495L355 1Q341 -40 324 -69T286 -118T238 -147T175 -156Q130 -156 106 -146T65 -120V-48Q84 -54 104 -58T152 -62Q193 -62 215 -47T249 -6L255 11H206L65 379H16V485H258V379H192L294
95L390 379H323V485ZM197 538Q168 538 148 557T128 605Q128 632 148 651T197 671Q224 671 244 652T265 605Q265 577 245 558T197 538ZM386 538Q358 538 338 557T318 605Q318 632 338 651T386 671Q414 671 434 652T454 605Q454 577 434 558T386 538Z" />
<glyph unicode="&#x100;" glyph-name="Amacron" horiz-adv-x="661" d="M20 90H62L237 639H428L600 90H642V0H388V90H463L435 186H206L177 90H251V0H20V90ZM234 278H407L321 567L234 278ZM202 777H462V695H202V777Z" />
<glyph unicode="&#x101;" glyph-name="amacron" horiz-adv-x="510" d="M55 432Q64 441 79 452T116 474T169 490T239 497Q292 497 329 484T391 445T426 384T437 302V122Q437 102 444 92T474 82Q479 82 483 82T492 83V9Q485 5 474 1Q465 -2 453 -4T423 -7Q374 -7
346 16T313 88Q298 38 260 13T165 -13Q102 -13 63 20T24 114V115Q24 154 40 179T82 220T142 247T215 266Q268 279 289 292T311 334V336Q311 366 290 388T217 410Q201 410 187 408T160 403V326H55V432ZM219 62Q255 62 283 92T311 179V250Q297 237 280 228T240 209Q217
200 200 193T173 177T157 157T152 130V125Q152 95 169 79T219 62ZM119 637H375V555H119V637Z" />
<glyph unicode="&#x102;" glyph-name="Abreve" horiz-adv-x="661" d="M20 90H62L237 639H428L600 90H642V0H388V90H463L435 186H206L177 90H251V0H20V90ZM234 278H407L321 567L234 278ZM453 799Q454 776 448 753T428 712T389 683T330 671Q295 671 271 682T232
711T211 752T207 799H277Q278 779 289 766T330 752Q359 752 370 765T382 799H453Z" />
<glyph unicode="&#x103;" glyph-name="abreve" horiz-adv-x="510" d="M55 432Q64 441 79 452T116 474T169 490T239 497Q292 497 329 484T391 445T426 384T437 302V122Q437 102 444 92T474 82Q479 82 483 82T492 83V9Q485 5 474 1Q465 -2 453 -4T423 -7Q374 -7
346 16T313 88Q298 38 260 13T165 -13Q102 -13 63 20T24 114V115Q24 154 40 179T82 220T142 247T215 266Q268 279 289 292T311 334V336Q311 366 290 388T217 410Q201 410 187 408T160 403V326H55V432ZM219 62Q255 62 283 92T311 179V250Q297 237 280 228T240 209Q217
200 200 193T173 177T157 157T152 130V125Q152 95 169 79T219 62ZM374 677Q376 652 370 627T348 582T307 550T246 537Q211 537 186 549T146 581T124 626T120 677H192Q191 653 204 636T246 618Q277 618 289 635T301 677H374Z" />
<glyph unicode="&#x104;" glyph-name="Aogonek" horiz-adv-x="661" d="M20 90H62L237 639H428L600 90H642V7Q607 -10 595 -30T582 -63Q582 -74 588 -80T608 -87Q623 -87 634 -80V-135Q628 -144 611 -149T570 -155Q525 -155 502 -135T478 -83Q478 -55 497 -35T544
0H388V90H463L435 186H206L177 90H251V0H20V90ZM234 278H407L321 567L234 278Z" />
<glyph unicode="&#x105;" glyph-name="aogonek" horiz-adv-x="510" d="M55 432Q64 441 79 452T116 474T169 490T239 497Q292 497 329 484T391 445T426 384T437 302V122Q437 102 444 92T474 82H483Q487 82 492 83V9Q448 -12 436 -31T423 -62Q423 -88 451 -88Q460
-88 467 -86T480 -82V-135Q465 -155 417 -155Q372 -155 349 -136T325 -85Q325 -56 346 -36T398 -5Q360 0 339 23T313 88Q298 38 260 13T165 -13Q102 -13 63 20T24 114V115Q24 154 40 179T82 220T142 247T215 266Q268 279 289 292T311 334V336Q311 366 290 388T217
410Q201 410 187 408T160 403V326H55V432ZM219 62Q255 62 283 92T311 179V250Q297 237 280 228T240 209Q217 200 200 193T173 177T157 157T152 130V125Q152 95 169 79T219 62Z" />
<glyph unicode="&#x106;" glyph-name="Cacute" horiz-adv-x="588" d="M429 540Q409 545 387 547T340 550Q250 550 208 499T166 351V309Q166 192 213 138T350 83Q396 83 440 95V193H549V60Q537 47 518 34T472 10T413 -8T340 -15Q270 -15 213 7T116 73T53 179T31
324V326Q31 401 51 461T109 564T203 630T330 653Q413 653 465 631T541 584V449H429V540ZM316 798H473L359 683H278L316 798Z" />
<glyph unicode="&#x107;" glyph-name="cacute" horiz-adv-x="467" d="M263 681H416L289 539H212L263 681ZM324 406Q301 409 275 409Q251 409 229 402T189 378T162 334T152 267V238Q152 154 187 119T292 84Q335 84 373 98T434 125V46Q417 26 376 7T267 -12Q213
-12 169 5T92 55T42 135T24 244V245Q24 311 45 358T99 437T176 482T264 497Q333 497 372 483T429 450V328H324V406Z" />
<glyph unicode="&#x108;" glyph-name="Ccircumflex" horiz-adv-x="588" d="M394 683L326 731L258 683H177L257 798H395L475 683H394ZM429 540Q409 545 387 547T340 550Q250 550 208 499T166 351V309Q166 192 213 138T350 83Q396 83 440 95V193H549V60Q537 47 518
34T472 10T413 -8T340 -15Q270 -15 213 7T116 73T53 179T31 324V326Q31 401 51 461T109 564T203 630T330 653Q413 653 465 631T541 584V449H429V540Z" />
<glyph unicode="&#x109;" glyph-name="ccircumflex" horiz-adv-x="467" d="M197 681H327L414 539H331L262 608L193 539H110L197 681ZM324 406Q301 409 275 409Q251 409 229 402T189 378T162 334T152 267V238Q152 154 187 119T292 84Q335 84 373 98T434 125V46Q417
26 376 7T267 -12Q213 -12 169 5T92 55T42 135T24 244V245Q24 311 45 358T99 437T176 482T264 497Q333 497 372 483T429 450V328H324V406Z" />
<glyph unicode="&#x10a;" glyph-name="Cdotaccent" horiz-adv-x="588" d="M429 540Q409 545 387 547T340 550Q250 550 208 499T166 351V309Q166 192 213 138T350 83Q396 83 440 95V193H549V60Q537 47 518 34T472 10T413 -8T340 -15Q270 -15 213 7T116 73T53 179T31
324V326Q31 401 51 461T109 564T203 630T330 653Q413 653 465 631T541 584V449H429V540ZM326 678Q296 678 276 699T255 749Q255 778 275 799T326 820Q356 820 376 799T397 749Q397 720 377 699T326 678Z" />
<glyph unicode="&#x10b;" glyph-name="cdotaccent" horiz-adv-x="467" d="M324 406Q301 409 275 409Q251 409 229 402T189 378T162 334T152 267V238Q152 154 187 119T292 84Q335 84 373 98T434 125V46Q417 26 376 7T267 -12Q213 -12 169 5T92 55T42 135T24 244V245Q24
311 45 358T99 437T176 482T264 497Q333 497 372 483T429 450V328H324V406ZM262 539Q232 539 212 560T191 610Q191 639 211 660T262 681Q292 681 312 660T333 610Q333 581 313 560T262 539Z" />
<glyph unicode="&#x10c;" glyph-name="Ccaron" horiz-adv-x="588" d="M258 798L326 750L394 798H475L395 683H257L177 798H258ZM429 540Q409 545 387 547T340 550Q250 550 208 499T166 351V309Q166 192 213 138T350 83Q396 83 440 95V193H549V60Q537 47 518 34T472
10T413 -8T340 -15Q270 -15 213 7T116 73T53 179T31 324V326Q31 401 51 461T109 564T203 630T330 653Q413 653 465 631T541 584V449H429V540Z" />
<glyph unicode="&#x10d;" glyph-name="ccaron" horiz-adv-x="467" d="M194 681L263 612L332 681H415L328 539H198L111 681H194ZM324 406Q301 409 275 409Q251 409 229 402T189 378T162 334T152 267V238Q152 154 187 119T292 84Q335 84 373 98T434 125V46Q417 26
376 7T267 -12Q213 -12 169 5T92 55T42 135T24 244V245Q24 311 45 358T99 437T176 482T264 497Q333 497 372 483T429 450V328H324V406Z" />
<glyph unicode="&#x10e;" glyph-name="Dcaron" horiz-adv-x="650" d="M242 798L310 750L378 798H459L379 683H241L161 798H242ZM26 639H331Q471 639 545 560T620 328V326Q620 243 599 182T539 80T442 20T312 0H26V90H83V542H26V639ZM301 95Q352 95 387 109T444
151T475 217T485 308V355Q485 397 478 430T451 486T401 522T321 534H212V95H301Z" />
<glyph unicode="&#x10f;" glyph-name="dcaron" horiz-adv-x="593" d="M553 673H654L615 533H548L553 673ZM419 0Q413 16 408 34Q403 50 400 71T395 115Q387 89 373 66T338 25T290 -2T226 -12Q179 -12 142 7T80 60T41 143T27 248V249Q27 310 43 356T86 433T151
480T231 496Q300 496 339 462T393 378V576H322V673H519V90H572V0H419ZM268 77Q293 77 316 87T356 118T383 166T393 231V249Q393 290 383 319T356 368T316 396T268 405Q217 405 186 371T155 266V232Q155 160 184 119T268 77Z" />
<glyph unicode="&#x110;" glyph-name="Dcroat" horiz-adv-x="650" d="M21 364H83V542H26V639H331Q471 639 545 560T620 328V326Q620 243 599 182T539 80T442 20T312 0H26V90H83V271H21V364ZM301 95Q352 95 387 109T444 151T475 217T485 308V355Q485 397 478 430T451
486T401 522T321 534H210V364H358V271H210V95H301Z" />
<glyph unicode="&#x111;" glyph-name="dcroat" horiz-adv-x="593" d="M226 -12Q179 -12 142 7T80 60T41 143T27 248V249Q27 310 43 356T86 433T151 480T231 496Q300 496 339 462T393 378V542H242V607H393V673H519V607H582V542H519V90H572V0H419Q413 16 408 34Q403
50 400 71T395 115Q387 89 373 66T338 25T290 -2T226 -12ZM268 77Q293 77 316 87T356 118T383 166T393 231V249Q393 290 383 319T356 368T316 396T268 405Q217 405 186 371T155 266V232Q155 160 184 119T268 77Z" />
<glyph unicode="&#x112;" glyph-name="Emacron" horiz-adv-x="564" d="M417 535H212V363H443V267H212V93H425V185H531V0H26V90H83V542H26V639H524V449H417V535ZM161 777H421V695H161V777Z" />
<glyph unicode="&#x113;" glyph-name="emacron" horiz-adv-x="497" d="M277 -11Q158 -11 91 53T24 243V244Q24 303 42 350T91 429T166 479T261 497Q315 497 354 481T420 438T458 373T471 293Q471 270 468 251T459 216H153Q155 178 165 153T195 113T242 92T306
85Q354 85 392 95T452 118V48Q436 26 391 8T277 -11ZM262 414Q214 414 185 381T153 280H357V290Q357 356 332 385T262 414ZM131 637H387V555H131V637Z" />
<glyph unicode="&#x114;" glyph-name="Ebreve" horiz-adv-x="564" d="M417 535H212V363H443V267H212V93H425V185H531V0H26V90H83V542H26V639H524V449H417V535ZM417 799Q418 776 412 753T392 712T353 683T294 671Q259 671 235 682T196 711T175 752T171 799H241Q242
779 253 766T294 752Q323 752 334 765T346 799H417Z" />
<glyph unicode="&#x115;" glyph-name="ebreve" horiz-adv-x="497" d="M277 -11Q158 -11 91 53T24 243V244Q24 303 42 350T91 429T166 479T261 497Q315 497 354 481T420 438T458 373T471 293Q471 270 468 251T459 216H153Q155 178 165 153T195 113T242 92T306 85Q354
85 392 95T452 118V48Q436 26 391 8T277 -11ZM262 414Q214 414 185 381T153 280H357V290Q357 356 332 385T262 414ZM389 677Q391 652 385 627T363 582T322 550T261 537Q226 537 201 549T161 581T139 626T135 677H207Q206 653 219 636T261 618Q292 618 304 635T316
677H389Z" />
<glyph unicode="&#x116;" glyph-name="Edotaccent" horiz-adv-x="564" d="M294 678Q264 678 244 699T223 749Q223 778 243 799T294 820Q324 820 344 799T365 749Q365 720 345 699T294 678ZM417 535H212V363H443V267H212V93H425V185H531V0H26V90H83V542H26V639H524V449H417V535Z"
/>
<glyph unicode="&#x117;" glyph-name="edotaccent" horiz-adv-x="497" d="M277 -11Q158 -11 91 53T24 243V244Q24 303 42 350T91 429T166 479T261 497Q315 497 354 481T420 438T458 373T471 293Q471 270 468 251T459 216H153Q155 178 165 153T195 113T242 92T306
85Q354 85 392 95T452 118V48Q436 26 391 8T277 -11ZM262 414Q214 414 185 381T153 280H357V290Q357 356 332 385T262 414ZM262 539Q232 539 212 560T191 610Q191 639 211 660T262 681Q292 681 312 660T333 610Q333 581 313 560T262 539Z" />
<glyph unicode="&#x118;" glyph-name="Eogonek" horiz-adv-x="564" d="M417 535H212V363H443V267H212V93H425V185H531V0H473Q444 -17 435 -34T425 -63Q425 -74 431 -80T451 -87Q465 -87 477 -80V-135Q462 -155 412 -155Q368 -155 345 -135T321 -83Q321 -55 340
-35T385 0H26V90H83V542H26V639H524V449H417V535Z" />
<glyph unicode="&#x119;" glyph-name="eogonek" horiz-adv-x="497" d="M153 216Q155 178 165 153T195 113T242 92T306 85Q354 85 392 95T452 118V48Q444 37 427 25T393 0T362 -29T348 -62Q348 -88 376 -88Q385 -88 392 -86T405 -82V-135Q390 -155 342 -155Q297
-155 274 -136T250 -85Q250 -59 268 -40T312 -9Q304 -10 295 -10T277 -11Q158 -11 91 53T24 243V244Q24 303 42 350T91 429T166 479T261 497Q315 497 354 481T420 438T458 373T471 293Q471 270 468 251T459 216H153ZM262 414Q214 414 185 381T153 280H357V290Q357
356 332 385T262 414Z" />
<glyph unicode="&#x11a;" glyph-name="Ecaron" horiz-adv-x="564" d="M226 798L294 750L362 798H443L363 683H225L145 798H226ZM417 535H212V363H443V267H212V93H425V185H531V0H26V90H83V542H26V639H524V449H417V535Z" />
<glyph unicode="&#x11b;" glyph-name="ecaron" horiz-adv-x="497" d="M191 681L260 612L329 681H412L325 539H195L108 681H191ZM277 -11Q158 -11 91 53T24 243V244Q24 303 42 350T91 429T166 479T261 497Q315 497 354 481T420 438T458 373T471 293Q471 270 468
251T459 216H153Q155 178 165 153T195 113T242 92T306 85Q354 85 392 95T452 118V48Q436 26 391 8T277 -11ZM262 414Q214 414 185 381T153 280H357V290Q357 356 332 385T262 414Z" />
<glyph unicode="&#x11c;" glyph-name="Gcircumflex" horiz-adv-x="620" d="M399 683L331 731L263 683H182L262 798H400L480 683H399ZM337 339H575V69Q542 35 483 10T340 -15Q272 -15 215 7T117 71T54 177T31 323V325Q31 400 53 460T117 563T216 629T346 653Q427
653 476 634T552 591V449H441V540Q421 545 400 547T355 550Q266 550 216 498T165 345V311Q165 193 213 139T351 85Q377 85 401 88T448 98V242H337V339Z" />
<glyph unicode="&#x11d;" glyph-name="gcircumflex" horiz-adv-x="591" d="M222 681H352L439 539H356L287 608L218 539H135L222 681ZM255 -155Q212 -155 180 -150T126 -136T88 -117T64 -96V-3Q75 -12 90 -21T125 -39T172 -53T235 -58Q311 -58 351 -22T391 84V135Q376
88 335 59T225 30Q128 30 77 93T25 263V264Q25 318 40 361T83 434T148 480T230 496Q299 496 338 469T398 385Q400 405 404 423T414 456Q419 472 425 485H570V379H517V94Q517 -31 449 -93T255 -155ZM265 109Q290 109 313 118T353 145T381 189T391 251V264Q391 335
355 370T267 405Q216 405 185 372T154 275V251Q154 183 182 146T265 109Z" />
<glyph unicode="&#x11e;" glyph-name="Gbreve" horiz-adv-x="620" d="M454 799Q455 776 449 753T429 712T390 683T331 671Q296 671 272 682T233 711T212 752T208 799H278Q279 779 290 766T331 752Q360 752 371 765T383 799H454ZM337 339H575V69Q542 35 483 10T340
-15Q272 -15 215 7T117 71T54 177T31 323V325Q31 400 53 460T117 563T216 629T346 653Q427 653 476 634T552 591V449H441V540Q421 545 400 547T355 550Q266 550 216 498T165 345V311Q165 193 213 139T351 85Q377 85 401 88T448 98V242H337V339Z" />
<glyph unicode="&#x11f;" glyph-name="gbreve" horiz-adv-x="591" d="M255 -155Q212 -155 180 -150T126 -136T88 -117T64 -96V-3Q75 -12 90 -21T125 -39T172 -53T235 -58Q311 -58 351 -22T391 84V135Q376 88 335 59T225 30Q128 30 77 93T25 263V264Q25 318 40
361T83 434T148 480T230 496Q299 496 338 469T398 385Q400 405 404 423T414 456Q419 472 425 485H570V379H517V94Q517 -31 449 -93T255 -155ZM265 109Q290 109 313 118T353 145T381 189T391 251V264Q391 335 355 370T267 405Q216 405 185 372T154 275V251Q154 183
182 146T265 109ZM410 677Q412 652 406 627T384 582T343 550T282 537Q247 537 222 549T182 581T160 626T156 677H228Q227 653 240 636T282 618Q313 618 325 635T337 677H410Z" />
<glyph unicode="&#x120;" glyph-name="Gdotaccent" horiz-adv-x="620" d="M331 678Q301 678 281 699T260 749Q260 778 280 799T331 820Q361 820 381 799T402 749Q402 720 382 699T331 678ZM337 339H575V69Q542 35 483 10T340 -15Q272 -15 215 7T117 71T54 177T31
323V325Q31 400 53 460T117 563T216 629T346 653Q427 653 476 634T552 591V449H441V540Q421 545 400 547T355 550Q266 550 216 498T165 345V311Q165 193 213 139T351 85Q377 85 401 88T448 98V242H337V339Z" />
<glyph unicode="&#x121;" glyph-name="gdotaccent" horiz-adv-x="591" d="M255 -155Q212 -155 180 -150T126 -136T88 -117T64 -96V-3Q75 -12 90 -21T125 -39T172 -53T235 -58Q311 -58 351 -22T391 84V135Q376 88 335 59T225 30Q128 30 77 93T25 263V264Q25 318
40 361T83 434T148 480T230 496Q299 496 338 469T398 385Q400 405 404 423T414 456Q419 472 425 485H570V379H517V94Q517 -31 449 -93T255 -155ZM265 109Q290 109 313 118T353 145T381 189T391 251V264Q391 335 355 370T267 405Q216 405 185 372T154 275V251Q154
183 182 146T265 109ZM287 539Q257 539 237 560T216 610Q216 639 236 660T287 681Q317 681 337 660T358 610Q358 581 338 560T287 539Z" />
<glyph unicode="&#x122;" glyph-name="Gcommaaccent" horiz-adv-x="620" d="M257 -177Q268 -154 273 -133T278 -91Q278 -77 277 -67T273 -46H382Q386 -57 386 -72Q386 -101 374 -129T333 -177H257ZM337 339H575V69Q542 35 483 10T340 -15Q272 -15 215 7T117 71T54
177T31 323V325Q31 400 53 460T117 563T216 629T346 653Q427 653 476 634T552 591V449H441V540Q421 545 400 547T355 550Q266 550 216 498T165 345V311Q165 193 213 139T351 85Q377 85 401 88T448 98V242H337V339Z" />
<glyph unicode="&#x123;" glyph-name="gcommaaccent" horiz-adv-x="591" d="M358 684Q347 661 342 640T337 598Q337 584 338 574T342 553H233Q229 564 229 579Q229 608 241 636T282 684H358ZM255 -155Q212 -155 180 -150T126 -136T88 -117T64 -96V-3Q75 -12 90
-21T125 -39T172 -53T235 -58Q311 -58 351 -22T391 84V135Q376 88 335 59T225 30Q128 30 77 93T25 263V264Q25 318 40 361T83 434T148 480T230 496Q299 496 338 469T398 385Q400 405 404 423T414 456Q419 472 425 485H570V379H517V94Q517 -31 449 -93T255 -155ZM265
109Q290 109 313 118T353 145T381 189T391 251V264Q391 335 355 370T267 405Q216 405 185 372T154 275V251Q154 183 182 146T265 109Z" />
<glyph unicode="&#x124;" glyph-name="Hcircumflex" horiz-adv-x="691" d="M404 90H478V274H212V90H287V0H26V90H83V542H26V639H287V542H212V376H478V542H404V639H665V542H608V90H665V0H404V90ZM413 683L345 731L277 683H196L276 798H414L494 683H413Z" />
<glyph unicode="&#x125;" glyph-name="hcircumflex" horiz-adv-x="595" d="M334 90H398V320Q398 400 318 400Q267 400 235 365T200 262V90H266V0H21V90H74V576H21V673H200V364Q215 427 260 462T369 497Q441 497 483 455T525 326V90H574V0H334V90ZM367 709L299
757L231 709H150L230 824H368L448 709H367Z" />
<glyph unicode="&#x126;" glyph-name="Hbar" horiz-adv-x="691" d="M404 90H478V266H212V90H287V0H26V90H83V427H7V491H83V546H26V639H287V546H212V491H478V546H404V639H665V546H608V491H684V427H608V90H665V0H404V90ZM478 359V427H212V359H478Z" />
<glyph unicode="&#x127;" glyph-name="hbar" horiz-adv-x="595" d="M9 607H74V673H200V607H348V542H200V364Q215 427 260 462T369 497Q441 497 483 455T525 326V90H574V0H334V90H398V320Q398 400 318 400Q267 400 235 365T200 262V90H266V0H21V90H74V542H9V607Z" />
<glyph unicode="&#x128;" glyph-name="Itilde" horiz-adv-x="307" d="M26 639H281V542H218V90H281V0H26V90H89V542H26V639ZM270 681Q263 705 264 728T275 769T301 799T344 810Q366 810 384 805T418 793T447 782T471 776Q486 776 490 785T497 814H551Q558 790 557
767T547 726T521 696T480 685Q460 685 442 690T408 701T378 713T350 718Q336 718 331 710T324 681H270V681Z" />
<glyph unicode="&#x129;" glyph-name="itilde" horiz-adv-x="281" d="M21 485H204V90H260V0H21V90H77V379H21V485ZM249 551Q242 575 242 598T252 639T278 669T322 681Q343 681 360 676T391 664T416 653T439 647Q453 647 457 656T464 685H518Q524 661 524 638T516
597T491 567T449 555Q430 555 414 560T382 572T354 583T329 589Q315 589 310 580T302 551H249V551Z" />
<glyph unicode="&#x12a;" glyph-name="Imacron" horiz-adv-x="307" d="M26 639H281V542H218V90H281V0H26V90H89V542H26V639ZM280 777H540V695H280V777Z" />
<glyph unicode="&#x12b;" glyph-name="imacron" horiz-adv-x="281" d="M15 637H234V555H15V637ZM21 485H204V90H260V0H21V90H77V379H21V485Z" />
<glyph unicode="&#x12c;" glyph-name="Ibreve" horiz-adv-x="307" d="M26 639H281V542H218V90H281V0H26V90H89V542H26V639ZM533 799Q534 776 528 753T508 712T469 683T410 671Q375 671 351 682T312 711T291 752T287 799H357Q358 779 369 766T410 752Q439 752 450
765T462 799H533Z" />
<glyph unicode="&#x12d;" glyph-name="ibreve" horiz-adv-x="281" d="M21 485H204V90H260V0H21V90H77V379H21V485ZM513 677Q515 652 509 627T487 582T446 550T385 537Q350 537 325 549T285 581T263 626T259 677H331Q330 653 343 636T385 618Q416 618 428 635T440
677H513Z" />
<glyph unicode="&#x12e;" glyph-name="Iogonek" horiz-adv-x="307" d="M26 639H281V542H218V90H281V0H228Q206 -16 199 -31T191 -62Q191 -73 197 -80T217 -87Q232 -87 244 -80V-135Q229 -155 179 -155Q135 -155 112 -135T88 -83Q88 -57 103 -36T142 0H26V90H89V542H26V639Z"
/>
<glyph unicode="&#x12f;" glyph-name="iogonek" horiz-adv-x="281" d="M21 485H204V90H260V0H215Q189 -17 181 -34T173 -62Q173 -88 201 -88Q210 -88 217 -86T230 -82V-135Q215 -155 167 -155Q122 -155 99 -136T75 -85Q75 -55 97 -33T147 0H21V90H77V379H21V485ZM137
534Q108 534 87 555T65 606Q65 635 86 656T137 678Q166 678 187 657T209 606Q209 576 188 555T137 534Z" />
<glyph unicode="&#x130;" glyph-name="Idotaccent" horiz-adv-x="307" d="M26 639H281V542H218V90H281V0H26V90H89V542H26V639ZM410 678Q380 678 360 699T339 749Q339 778 359 799T410 820Q440 820 460 799T481 749Q481 720 461 699T410 678Z" />
<glyph unicode="&#x131;" glyph-name="dotlessi" horiz-adv-x="281" d="M21 485H204V90H260V0H21V90H77V379H21V485Z" />
<glyph unicode="&#x132;" glyph-name="IJ" horiz-adv-x="689" d="M407 639H664V542H612V175Q612 88 570 38T437 -13Q393 -13 366 -4T324 19V103Q338 98 357 94T407 90Q447 90 464 111T482 178V542H407V639ZM26 639H281V542H218V90H280V0H26V90H89V542H26V639Z" />
<glyph unicode="&#x133;" glyph-name="ij" horiz-adv-x="524" d="M21 485H204V90H260V0H21V90H77V379H21V485ZM137 534Q108 534 87 555T65 606Q65 635 86 656T137 678Q166 678 187 657T209 606Q209 576 188 555T137 534ZM283 485H466V-7Q466 -47 455 -75T426 -121T382
-147T328 -155Q290 -155 269 -148T237 -132V-65Q246 -67 255 -67T278 -67Q309 -67 324 -58T339 -15V379H283V485ZM399 534Q370 534 349 555T327 606Q327 635 348 656T399 678Q428 678 449 657T471 606Q471 576 450 555T399 534Z" />
<glyph unicode="&#x134;" glyph-name="Jcircumflex" horiz-adv-x="400" d="M313 683L245 731L177 683H96L176 798H314L394 683H313ZM118 639H374V542H322V177Q322 90 278 40T140 -11Q93 -11 65 -1T21 22V106Q36 101 57 96T111 91Q193 91 193 180V542H118V639Z" />
<glyph unicode="&#x135;" glyph-name="jcircumflex" horiz-adv-x="263" d="M21 485H204V-7Q204 -47 193 -75T164 -121T120 -147T66 -155Q28 -155 7 -148T-25 -132V-65Q-16 -67 -7 -67T16 -67Q47 -67 62 -58T77 -15V379H21V485ZM320 681H450L537 539H454L385 608L316
539H233L320 681Z" />
<glyph unicode="&#x136;" glyph-name="Kcommaaccent" horiz-adv-x="632" d="M234 -177Q245 -154 250 -133T255 -91Q255 -77 254 -67T250 -46H359Q363 -57 363 -72Q363 -101 351 -129T310 -177H234ZM346 90H411L212 316V90H282V0H26V90H83V542H26V639H282V542H212V335L425
542H346V639H601V542H554L344 339L565 90H609V0H346V90Z" />
<glyph unicode="&#x137;" glyph-name="kcommaaccent" horiz-adv-x="534" d="M201 -177Q212 -154 217 -133T222 -91Q222 -77 221 -67T217 -46H326Q330 -57 330 -72Q330 -101 318 -129T277 -177H201ZM200 243V90H260V0H21V90H74V576H21V673H200V260L373 485H495V379H415L323
264L449 90H513V0H369L200 243Z" />
<glyph unicode="&#x139;" glyph-name="Lacute" horiz-adv-x="543" d="M396 798H553L439 683H358L396 798ZM26 639H295V542H213V100H408V193H517V0H26V90H84V542H26V639Z" />
<glyph unicode="&#x13a;" glyph-name="lacute" horiz-adv-x="282" d="M388 824H545L431 709H350L388 824ZM21 673H204V90H261V0H21V90H78V576H21V673Z" />
<glyph unicode="&#x13b;" glyph-name="Lcommaaccent" horiz-adv-x="543" d="M203 -177Q214 -154 219 -133T224 -91Q224 -77 223 -67T219 -46H328Q332 -57 332 -72Q332 -101 320 -129T279 -177H203ZM26 639H295V542H213V100H408V193H517V0H26V90H84V542H26V639Z" />
<glyph unicode="&#x13c;" glyph-name="lcommaaccent" horiz-adv-x="282" d="M324 -177Q335 -154 340 -133T345 -91Q345 -77 344 -67T340 -46H449Q453 -57 453 -72Q453 -101 441 -129T400 -177H324ZM21 673H204V90H261V0H21V90H78V576H21V673Z" />
<glyph unicode="&#x13d;" glyph-name="Lcaron" horiz-adv-x="543" d="M331 640H432L393 500H326L331 640ZM26 639H295V542H213V100H408V193H517V0H26V90H84V542H26V639Z" />
<glyph unicode="&#x13e;" glyph-name="lcaron" horiz-adv-x="282" d="M238 673H339L300 533H233L238 673ZM21 673H204V90H261V0H21V90H78V576H21V673Z" />
<glyph unicode="&#x13f;" glyph-name="Ldot" horiz-adv-x="543" d="M26 639H295V542H213V100H408V185H517V0H26V90H84V542H26V639ZM448 271Q417 271 395 293T373 347Q373 379 395 401T448 424Q479 424 501 402T523 347Q523 331 518 318T502 294T477 278T448 271Z" />
<glyph unicode="&#x140;" glyph-name="ldot" horiz-adv-x="380" d="M331 259Q300 259 278 281T256 334Q256 366 278 388T331 411Q362 411 384 389T406 334Q406 319 401 306T385 282T361 266T331 259ZM21 673H204V90H261V0H21V90H78V576H21V673Z" />
<glyph unicode="&#x141;" glyph-name="Lslash" horiz-adv-x="543" d="M26 639H295V542H213V347L407 443V363L213 266V100H408V193H517V0H26V90H84V202L22 171V252L84 283V542H26V639Z" />
<glyph unicode="&#x142;" glyph-name="lslash" horiz-adv-x="282" d="M21 673H204V448L261 486V401L204 362V90H261V0H21V90H78V278L20 239V325L78 363V576H21V673Z" />
<glyph unicode="&#x143;" glyph-name="Nacute" horiz-adv-x="699" d="M354 798H511L397 683H316L354 798ZM435 639H676V542H619V0H446L192 524V90H274V0H26V90H83V542H26V639H274L510 142V542H435V639Z" />
<glyph unicode="&#x144;" glyph-name="nacute" horiz-adv-x="595" d="M291 681H444L317 539H240L291 681ZM334 90H398V320Q398 400 318 400Q267 400 235 365T200 262V90H266V0H21V90H74V379H21V485H174Q181 469 186 451Q191 435 194 414T198 370V360Q213 424 258
460T369 497Q441 497 483 455T525 326V90H574V0H334V90Z" />
<glyph unicode="&#x145;" glyph-name="Ncommaaccent" horiz-adv-x="699" d="M276 -177Q287 -154 292 -133T297 -91Q297 -77 296 -67T292 -46H401Q405 -57 405 -72Q405 -101 393 -129T352 -177H276ZM435 639H676V542H619V0H446L192 524V90H274V0H26V90H83V542H26V639H274L510
142V542H435V639Z" />
<glyph unicode="&#x146;" glyph-name="ncommaaccent" horiz-adv-x="595" d="M216 -177Q227 -154 232 -133T237 -91Q237 -77 236 -67T232 -46H341Q345 -57 345 -72Q345 -101 333 -129T292 -177H216ZM334 90H398V320Q398 400 318 400Q267 400 235 365T200 262V90H266V0H21V90H74V379H21V485H174Q181
469 186 451Q191 435 194 414T198 370V360Q213 424 258 460T369 497Q441 497 483 455T525 326V90H574V0H334V90Z" />
<glyph unicode="&#x147;" glyph-name="Ncaron" horiz-adv-x="699" d="M296 798L364 750L432 798H513L433 683H295L215 798H296ZM435 639H676V542H619V0H446L192 524V90H274V0H26V90H83V542H26V639H274L510 142V542H435V639Z" />
<glyph unicode="&#x148;" glyph-name="ncaron" horiz-adv-x="595" d="M221 681L290 612L359 681H442L355 539H225L138 681H221ZM334 90H398V320Q398 400 318 400Q267 400 235 365T200 262V90H266V0H21V90H74V379H21V485H174Q181 469 186 451Q191 435 194 414T198
370V360Q213 424 258 460T369 497Q441 497 483 455T525 326V90H574V0H334V90Z" />
<glyph unicode="&#x149;" glyph-name="napostrophe" horiz-adv-x="684" d="M197 423Q228 506 228 589Q228 602 227 615T223 639H343Q344 631 344 624T345 607Q345 550 328 508T278 423H197V423ZM423 90H487V320Q487 400 407 400Q356 400 324 365T289 262V90H355V0H110V90H163V379H110V485H263Q270
469 275 451Q280 435 283 414T287 370V360Q302 424 347 460T458 497Q530 497 572 455T614 326V90H663V0H423V90Z" />
<glyph unicode="&#x14a;" glyph-name="Eng" horiz-adv-x="702" d="M26 639H274L510 142V542H435V639H676V542H619V28Q619 -57 577 -104T448 -151Q400 -151 373 -141T332 -119V-41Q346 -46 366 -50T414 -55Q458 -55 478 -39T503 10H441L192 524V90H274V0H26V90H83V542H26V639Z"
/>
<glyph unicode="&#x14b;" glyph-name="eng" horiz-adv-x="579" d="M21 485H174Q181 469 186 451Q191 435 194 414T198 370V360Q213 424 258 460T369 497Q441 497 483 455T525 326V48H524V6Q524 -39 512 -69T480 -119T434 -146T379 -155Q339 -155 317 -148T284
-132V-65Q288 -66 292 -66Q296 -67 301 -67T312 -67Q357 -67 377 -54T398 5V320Q398 400 318 400Q267 400 235 365T200 262V90H266V0H21V90H74V379H21V485Z" />
<glyph unicode="&#x14c;" glyph-name="Omacron" horiz-adv-x="674" d="M207 777H467V695H207V777ZM337 83Q421 83 465 135T509 303V352Q509 442 468 496T337 550Q248 550 207 496T165 352V303Q165 187 209 135T337 83ZM337 -15Q273 -15 217 6T120 69T55 174T31
321V323Q31 398 52 459T112 563T208 629T337 653Q409 653 466 630T562 563T623 459T644 323V321Q644 237 621 174T556 69T458 6T337 -15Z" />
<glyph unicode="&#x14d;" glyph-name="omacron" horiz-adv-x="542" d="M143 637H399V555H143V637ZM271 72Q296 72 317 80T355 107T380 157T390 234V270Q390 339 358 375T271 412Q217 412 185 376T153 270V234Q153 188 162 157T187 107T224 80T271 72ZM271 -11Q222
-11 178 4T99 50T45 131T24 248V250Q24 308 42 354T93 431T171 480T271 497Q325 497 370 480T448 432T499 355T518 251V249Q518 181 498 132T443 51T365 4T271 -11Z" />
<glyph unicode="&#x14e;" glyph-name="Obreve" horiz-adv-x="674" d="M460 799Q461 776 455 753T435 712T396 683T337 671Q302 671 278 682T239 711T218 752T214 799H284Q285 779 296 766T337 752Q366 752 377 765T389 799H460ZM337 83Q421 83 465 135T509 303V352Q509
442 468 496T337 550Q248 550 207 496T165 352V303Q165 187 209 135T337 83ZM337 -15Q273 -15 217 6T120 69T55 174T31 321V323Q31 398 52 459T112 563T208 629T337 653Q409 653 466 630T562 563T623 459T644 323V321Q644 237 621 174T556 69T458 6T337 -15Z" />
<glyph unicode="&#x14f;" glyph-name="obreve" horiz-adv-x="542" d="M271 72Q296 72 317 80T355 107T380 157T390 234V270Q390 339 358 375T271 412Q217 412 185 376T153 270V234Q153 188 162 157T187 107T224 80T271 72ZM271 -11Q222 -11 178 4T99 50T45 131T24
248V250Q24 308 42 354T93 431T171 480T271 497Q325 497 370 480T448 432T499 355T518 251V249Q518 181 498 132T443 51T365 4T271 -11ZM398 677Q400 652 394 627T372 582T331 550T270 537Q235 537 210 549T170 581T148 626T144 677H216Q215 653 228 636T270 618Q301
618 313 635T325 677H398Z" />
<glyph unicode="&#x150;" glyph-name="Ohungarumlaut" horiz-adv-x="674" d="M246 798H371L295 683H207L246 798ZM403 798H528L452 683H364L403 798ZM337 83Q421 83 465 135T509 303V352Q509 442 468 496T337 550Q248 550 207 496T165 352V303Q165 187 209 135T337
83ZM337 -15Q273 -15 217 6T120 69T55 174T31 321V323Q31 398 52 459T112 563T208 629T337 653Q409 653 466 630T562 563T623 459T644 323V321Q644 237 621 174T556 69T458 6T337 -15Z" />
<glyph unicode="&#x151;" glyph-name="ohungarumlaut" horiz-adv-x="542" d="M191 681H313L229 539H142L191 681ZM352 681H474L390 539H303L352 681ZM271 72Q296 72 317 80T355 107T380 157T390 234V270Q390 339 358 375T271 412Q217 412 185 376T153 270V234Q153
188 162 157T187 107T224 80T271 72ZM271 -11Q222 -11 178 4T99 50T45 131T24 248V250Q24 308 42 354T93 431T171 480T271 497Q325 497 370 480T448 432T499 355T518 251V249Q518 181 498 132T443 51T365 4T271 -11Z" />
<glyph unicode="&#x152;" glyph-name="OE" horiz-adv-x="857" d="M331 0Q185 0 108 79T31 326V328Q31 480 103 559T316 639H817V449H710V534H531V363H736V267H531V93H718V185H824V0H331ZM160 308Q160 257 169 218T199 151T255 110T342 95H402V534H326Q278 534
246 522T195 487T168 430T160 355V308Z" />
<glyph unicode="&#x153;" glyph-name="oe" horiz-adv-x="854" d="M640 -11Q564 -11 516 18T445 105Q418 44 370 17T262 -11Q216 -11 173 4T97 50T44 131T24 248V250Q24 308 42 354T91 431T167 480T262 497Q328 497 374 469T446 384Q469 439 513 468T624 497Q676
497 714 481T778 438T816 373T829 293Q829 270 826 251T817 216H508Q512 142 552 114T664 85Q712 85 749 95T810 118V48Q794 26 750 8T640 -11ZM267 72Q291 72 312 80T348 107T373 157T382 234V270Q382 339 351 375T267 412Q215 412 184 376T152 270V234Q152 188
161 157T185 107T222 80T267 72ZM619 414Q571 414 541 381T508 280H715V290Q715 356 689 385T619 414Z" />
<glyph unicode="&#x154;" glyph-name="Racute" horiz-adv-x="599" d="M289 798H446L332 683H251L289 798ZM212 289V90H281V0H26V90H83V542H26V639H321Q433 639 491 591T550 451Q550 371 504 326T371 273L511 90H579V0H428L212 289ZM305 338Q370 338 395 363T420
440Q420 491 395 514T310 537H212V338H305Z" />
<glyph unicode="&#x155;" glyph-name="racute" horiz-adv-x="401" d="M219 681H372L245 539H168L219 681ZM21 485H174Q181 468 186 448Q191 431 194 408T198 359V332Q206 378 220 408T252 457T290 484T331 492Q351 492 361 486T377 469V370Q334 371 301 364T246
337T212 284T200 199V90H278V0H21V90H74V379H21V485Z" />
<glyph unicode="&#x156;" glyph-name="Rcommaaccent" horiz-adv-x="599" d="M239 -177Q250 -154 255 -133T260 -91Q260 -77 259 -67T255 -46H364Q368 -57 368 -72Q368 -101 356 -129T315 -177H239ZM212 289V90H281V0H26V90H83V542H26V639H321Q433 639 491 591T550
451Q550 371 504 326T371 273L511 90H579V0H428L212 289ZM305 338Q370 338 395 363T420 440Q420 491 395 514T310 537H212V338H305Z" />
<glyph unicode="&#x157;" glyph-name="rcommaaccent" horiz-adv-x="401" d="M320 -177Q331 -154 336 -133T341 -91Q341 -77 340 -67T336 -46H445Q449 -57 449 -72Q449 -101 437 -129T396 -177H320ZM21 485H174Q181 468 186 448Q191 431 194 408T198 359V332Q206
378 220 408T252 457T290 484T331 492Q351 492 361 486T377 469V370Q334 371 301 364T246 337T212 284T200 199V90H278V0H21V90H74V379H21V485Z" />
<glyph unicode="&#x158;" glyph-name="Rcaron" horiz-adv-x="599" d="M225 798L293 750L361 798H442L362 683H224L144 798H225ZM212 289V90H281V0H26V90H83V542H26V639H321Q433 639 491 591T550 451Q550 371 504 326T371 273L511 90H579V0H428L212 289ZM305 338Q370
338 395 363T420 440Q420 491 395 514T310 537H212V338H305Z" />
<glyph unicode="&#x159;" glyph-name="rcaron" horiz-adv-x="401" d="M149 681L218 612L287 681H370L283 539H153L66 681H149ZM21 485H174Q181 468 186 448Q191 431 194 408T198 359V332Q206 378 220 408T252 457T290 484T331 492Q351 492 361 486T377 469V370Q334
371 301 364T246 337T212 284T200 199V90H278V0H21V90H74V379H21V485Z" />
<glyph unicode="&#x15a;" glyph-name="Sacute" horiz-adv-x="531" d="M353 544Q334 549 315 551T276 554Q252 554 231 550T195 537T170 510T161 468Q161 446 170 430T203 403Q225 392 254 386T315 374T375 360T427 336Q465 312 481 276T498 188Q498 135 480 97T429
34T354 -3T261 -15Q178 -15 122 5T36 51V189H146V94Q170 87 196 83T250 79Q305 79 338 100T371 174Q371 197 363 211T332 237Q316 246 290 252T235 265T175 280T123 300Q80 324 61 364T42 458Q42 509 61 546T111 607T183 642T266 653Q336 653 386 637T462 596V461H353V544ZM255
798H412L298 683H217L255 798Z" />
<glyph unicode="&#x15b;" glyph-name="sacute" horiz-adv-x="428" d="M213 681H366L239 539H162L213 681ZM278 412Q264 414 251 415T223 416Q182 416 159 402T136 356Q136 324 167 311Q185 304 208 301T254 294T300 285T341 268Q372 249 387 222T403 149Q403 109
389 79T348 28T286 -2T205 -13Q140 -13 96 2T25 39V141H128V77Q157 70 197 70Q245 70 267 84T290 133Q290 165 261 178Q248 184 228 187T186 195T140 204T98 219Q63 237 47 267T31 341Q31 383 46 413T87 461T147 488T221 497Q275 497 316 485T379 456V352H278V412Z"
/>
<glyph unicode="&#x15c;" glyph-name="Scircumflex" horiz-adv-x="531" d="M333 683L265 731L197 683H116L196 798H334L414 683H333ZM353 544Q334 549 315 551T276 554Q252 554 231 550T195 537T170 510T161 468Q161 446 170 430T203 403Q225 392 254 386T315
374T375 360T427 336Q465 312 481 276T498 188Q498 135 480 97T429 34T354 -3T261 -15Q178 -15 122 5T36 51V189H146V94Q170 87 196 83T250 79Q305 79 338 100T371 174Q371 197 363 211T332 237Q316 246 290 252T235 265T175 280T123 300Q80 324 61 364T42 458Q42
509 61 546T111 607T183 642T266 653Q336 653 386 637T462 596V461H353V544Z" />
<glyph unicode="&#x15d;" glyph-name="scircumflex" horiz-adv-x="428" d="M150 681H280L367 539H284L215 608L146 539H63L150 681ZM278 412Q264 414 251 415T223 416Q182 416 159 402T136 356Q136 324 167 311Q185 304 208 301T254 294T300 285T341 268Q372 249
387 222T403 149Q403 109 389 79T348 28T286 -2T205 -13Q140 -13 96 2T25 39V141H128V77Q157 70 197 70Q245 70 267 84T290 133Q290 165 261 178Q248 184 228 187T186 195T140 204T98 219Q63 237 47 267T31 341Q31 383 46 413T87 461T147 488T221 497Q275 497 316
485T379 456V352H278V412Z" />
<glyph unicode="&#x15e;" glyph-name="Scedilla" horiz-adv-x="531" d="M353 544Q334 549 315 551T276 554Q252 554 231 550T195 537T170 510T161 468Q161 446 170 430T203 403Q225 392 254 386T315 374T375 360T427 336Q465 312 481 276T498 188Q498 135 480
97T429 34T354 -3Q312 -15 263 -15V-38Q308 -42 328 -61T349 -112Q349 -150 322 -168T250 -187Q220 -187 202 -181T176 -166V-122Q184 -125 196 -128T225 -131Q265 -131 265 -107Q265 -95 252 -87T201 -78V-12Q156 -7 121 5Q65 25 36 51V189H146V94Q170 87 196
83T250 79Q305 79 338 100T371 174Q371 197 363 211T332 237Q316 246 290 252T235 265T175 280T123 300Q80 324 61 364T42 458Q42 509 61 546T111 607T183 642T266 653Q336 653 386 637T462 596V461H353V544Z" />
<glyph unicode="&#x15f;" glyph-name="scedilla" horiz-adv-x="428" d="M278 412Q264 414 251 415T223 416Q182 416 159 402T136 356Q136 324 167 311Q185 304 208 301T254 294T300 285T341 268Q372 249 387 222T403 149Q403 109 389 79T348 28T285 -2Q253 -12
214 -13V-38Q259 -42 279 -61T300 -112Q300 -150 273 -168T201 -187Q171 -187 153 -181T127 -166V-122Q135 -125 147 -128T176 -131Q216 -131 216 -107Q216 -95 203 -87T152 -78V-10Q120 -6 95 2Q51 17 25 39V141H128V77Q157 70 197 70Q245 70 267 84T290 133Q290
165 261 178Q248 184 228 187T186 195T140 204T98 219Q63 237 47 267T31 341Q31 383 46 413T87 461T147 488T221 497Q275 497 316 485T379 456V352H278V412Z" />
<glyph unicode="&#x160;" glyph-name="Scaron" horiz-adv-x="531" d="M197 798L265 750L333 798H414L334 683H196L116 798H197ZM353 544Q334 549 315 551T276 554Q252 554 231 550T195 537T170 510T161 468Q161 446 170 430T203 403Q225 392 254 386T315 374T375
360T427 336Q465 312 481 276T498 188Q498 135 480 97T429 34T354 -3T261 -15Q178 -15 122 5T36 51V189H146V94Q170 87 196 83T250 79Q305 79 338 100T371 174Q371 197 363 211T332 237Q316 246 290 252T235 265T175 280T123 300Q80 324 61 364T42 458Q42 509 61
546T111 607T183 642T266 653Q336 653 386 637T462 596V461H353V544Z" />
<glyph unicode="&#x161;" glyph-name="scaron" horiz-adv-x="428" d="M146 681L215 612L284 681H367L280 539H150L63 681H146ZM278 412Q264 414 251 415T223 416Q182 416 159 402T136 356Q136 324 167 311Q185 304 208 301T254 294T300 285T341 268Q372 249 387
222T403 149Q403 109 389 79T348 28T286 -2T205 -13Q140 -13 96 2T25 39V141H128V77Q157 70 197 70Q245 70 267 84T290 133Q290 165 261 178Q248 184 228 187T186 195T140 204T98 219Q63 237 47 267T31 341Q31 383 46 413T87 461T147 488T221 497Q275 497 316 485T379
456V352H278V412Z" />
<glyph unicode="&#x162;" glyph-name="Tcommaaccent" horiz-adv-x="613" d="M232 -177Q243 -154 248 -133T253 -91Q253 -77 252 -67T248 -46H357Q361 -57 361 -72Q361 -101 349 -129T308 -177H232ZM478 538H371V90H444V0H169V90H242V538H135V426H28V639H585V426H478V538Z" />
<glyph unicode="&#x163;" glyph-name="tcommaaccent" horiz-adv-x="388" d="M147 -177Q158 -154 163 -133T168 -91Q168 -77 167 -67T163 -46H272Q276 -57 276 -72Q276 -101 264 -129T223 -177H147ZM243 -13Q214 -13 186 -6T135 18T100 65T86 139V394H21V466Q52
468 71 477T103 505T122 552T137 619H213V485H358V394H213V163Q213 116 232 99T291 81Q311 81 327 85T361 95V33Q349 16 321 2T243 -13Z" />
<glyph unicode="&#x164;" glyph-name="Tcaron" horiz-adv-x="613" d="M238 798L306 750L374 798H455L375 683H237L157 798H238ZM478 538H371V90H444V0H169V90H242V538H135V426H28V639H585V426H478V538Z" />
<glyph unicode="&#x165;" glyph-name="tcaron" horiz-adv-x="388" d="M265 673H366L327 533H260L265 673ZM243 -13Q214 -13 186 -6T135 18T100 65T86 139V394H21V466Q52 468 71 477T103 505T122 552T137 619H213V485H358V394H213V163Q213 116 232 99T291 81Q311
81 327 85T361 95V33Q349 16 321 2T243 -13Z" />
<glyph unicode="&#x166;" glyph-name="Tbar" horiz-adv-x="613" d="M105 360H507V275H105V360ZM478 538H371V90H444V0H169V90H242V538H135V426H28V639H585V426H478V538Z" />
<glyph unicode="&#x167;" glyph-name="tbar" horiz-adv-x="391" d="M358 245H22V318H358V245ZM243 -13Q214 -13 186 -6T135 18T100 65T86 139V394H21V466Q52 468 71 477T103 505T122 552T137 619H213V485H358V394H213V163Q213 116 232 99T291 81Q311 81 327 85T361
95V33Q349 16 321 2T243 -13Z" />
<glyph unicode="&#x168;" glyph-name="Utilde" horiz-adv-x="688" d="M409 639H664V542H613V262Q613 186 595 133T542 47T457 0T344 -15Q282 -15 232 0T148 48T95 134T76 263V542H24V639H279V542H205V240Q205 159 237 123T344 86Q419 86 451 122T483 239V542H409V639ZM204
681Q197 705 198 728T209 769T235 799T278 810Q300 810 318 805T352 793T381 782T405 776Q420 776 424 785T431 814H485Q492 790 491 767T481 726T455 696T414 685Q394 685 376 690T342 701T312 713T284 718Q270 718 265 710T258 681H204V681Z" />
<glyph unicode="&#x169;" glyph-name="utilde" horiz-adv-x="592" d="M321 485H518V90H571V0H418Q411 17 406 35Q401 51 398 71T395 113V119Q380 57 337 23T233 -12Q156 -12 114 32T71 172V379H21V485H197V174Q197 123 216 101T278 78Q329 78 360 115T392 222V379H321V485ZM152
551Q145 575 145 598T155 639T181 669T225 681Q246 681 263 676T294 664T319 653T342 647Q356 647 360 656T367 685H421Q427 661 427 638T419 597T394 567T352 555Q333 555 317 560T285 572T257 583T232 589Q218 589 213 580T205 551H152V551Z" />
<glyph unicode="&#x16a;" glyph-name="Umacron" horiz-adv-x="688" d="M409 639H664V542H613V262Q613 186 595 133T542 47T457 0T344 -15Q282 -15 232 0T148 48T95 134T76 263V542H24V639H279V542H205V240Q205 159 237 123T344 86Q419 86 451 122T483 239V542H409V639ZM214
777H474V695H214V777Z" />
<glyph unicode="&#x16b;" glyph-name="umacron" horiz-adv-x="592" d="M321 485H518V90H571V0H418Q411 17 406 35Q401 51 398 71T395 113V119Q380 57 337 23T233 -12Q156 -12 114 32T71 172V379H21V485H197V174Q197 123 216 101T278 78Q329 78 360 115T392 222V379H321V485ZM159
637H415V555H159V637Z" />
<glyph unicode="&#x16c;" glyph-name="Ubreve" horiz-adv-x="688" d="M409 639H664V542H613V262Q613 186 595 133T542 47T457 0T344 -15Q282 -15 232 0T148 48T95 134T76 263V542H24V639H279V542H205V240Q205 159 237 123T344 86Q419 86 451 122T483 239V542H409V639ZM467
799Q468 776 462 753T442 712T403 683T344 671Q309 671 285 682T246 711T225 752T221 799H291Q292 779 303 766T344 752Q373 752 384 765T396 799H467Z" />
<glyph unicode="&#x16d;" glyph-name="ubreve" horiz-adv-x="592" d="M321 485H518V90H571V0H418Q411 17 406 35Q401 51 398 71T395 113V119Q380 57 337 23T233 -12Q156 -12 114 32T71 172V379H21V485H197V174Q197 123 216 101T278 78Q329 78 360 115T392 222V379H321V485ZM414
677Q416 652 410 627T388 582T347 550T286 537Q251 537 226 549T186 581T164 626T160 677H232Q231 653 244 636T286 618Q317 618 329 635T341 677H414Z" />
<glyph unicode="&#x16e;" glyph-name="Uring" horiz-adv-x="688" d="M409 639H664V542H613V262Q613 186 595 133T542 47T457 0T344 -15Q282 -15 232 0T148 48T95 134T76 263V542H24V639H279V542H205V240Q205 159 237 123T344 86Q419 86 451 122T483 239V542H409V639ZM343
712Q362 712 374 724T387 758Q387 779 375 792T343 806Q326 806 313 793T300 758Q300 737 313 725T343 712ZM343 659Q322 659 304 666T272 687T251 719T243 758Q243 779 250 797T271 829T303 851T343 859Q364 859 383 851T415 830T437 798T445 758Q445 737 437
719T416 688T383 667T343 659Z" />
<glyph unicode="&#x16f;" glyph-name="uring" horiz-adv-x="592" d="M286 589Q305 589 318 601T331 636Q331 657 318 670T286 684Q269 684 256 671T243 636Q243 614 256 602T286 589ZM286 536Q265 536 247 544T215 565T194 597T186 636Q186 657 193 675T214 707T246
729T286 737Q307 737 326 729T358 707T380 675T388 636Q388 615 380 597T359 566T326 544T286 536ZM321 485H518V90H571V0H418Q411 17 406 35Q401 51 398 71T395 113V119Q380 57 337 23T233 -12Q156 -12 114 32T71 172V379H21V485H197V174Q197 123 216 101T278
78Q329 78 360 115T392 222V379H321V485Z" />
<glyph unicode="&#x170;" glyph-name="Uhungarumlaut" horiz-adv-x="688" d="M253 798H378L302 683H214L253 798ZM410 798H535L459 683H371L410 798ZM409 639H664V542H613V262Q613 186 595 133T542 47T457 0T344 -15Q282 -15 232 0T148 48T95 134T76 263V542H24V639H279V542H205V240Q205
159 237 123T344 86Q419 86 451 122T483 239V542H409V639Z" />
<glyph unicode="&#x171;" glyph-name="uhungarumlaut" horiz-adv-x="592" d="M321 485H518V90H571V0H418Q411 17 406 35Q401 51 398 71T395 113V119Q380 57 337 23T233 -12Q156 -12 114 32T71 172V379H21V485H197V174Q197 123 216 101T278 78Q329 78 360 115T392
222V379H321V485ZM207 681H329L245 539H158L207 681ZM368 681H490L406 539H319L368 681Z" />
<glyph unicode="&#x172;" glyph-name="Uogonek" horiz-adv-x="688" d="M24 639H279V542H205V240Q205 159 237 123T344 86Q419 86 451 122T483 239V542H409V639H664V542H613V262Q613 208 604 168T579 97T540 47T489 12Q450 -6 429 -24T408 -63Q408 -74 414 -80T434
-87Q449 -87 460 -80V-135Q454 -144 437 -149T396 -155Q351 -155 328 -136T304 -86Q304 -62 319 -44T358 -14Q353 -15 350 -15H343Q281 -15 232 0T148 48T95 134T76 263V542H24V639Z" />
<glyph unicode="&#x173;" glyph-name="uogonek" horiz-adv-x="592" d="M485 0Q450 -19 441 -35T432 -62Q432 -88 460 -88Q469 -88 476 -86T489 -82V-135Q474 -155 425 -155Q381 -155 358 -136T334 -85Q334 -56 357 -32T415 7Q410 18 403 48T395 113V119Q380 57
337 23T233 -12Q156 -12 114 32T71 172V379H21V485H197V174Q197 123 216 101T278 78Q329 78 360 115T392 222V379H321V485H518V90H571V0H485Z" />
<glyph unicode="&#x174;" glyph-name="Wcircumflex" horiz-adv-x="916" d="M537 683L469 731L401 683H320L400 798H538L618 683H537ZM458 483L347 0H178L59 542H20V639H270V542H193L276 112L400 639H540L665 112L749 542H671V639H897V542H858L740 0H573L458 483Z" />
<glyph unicode="&#x175;" glyph-name="wcircumflex" horiz-adv-x="775" d="M333 681H463L550 539H467L398 608L329 539H246L333 681ZM391 349L312 0H153L60 379H16V485H249V383H182L247 87L337 485H461L558 87L618 383H548V485H759V379H715L627 0H471L391 349Z" />
<glyph unicode="&#x176;" glyph-name="Ycircumflex" horiz-adv-x="601" d="M20 639H269V542H202L314 334L426 542H359V639H581V542H537L367 235V90H440V0H165V90H238V233L63 542H20V639ZM382 683L314 731L246 683H165L245 798H383L463 683H382Z" />
<glyph unicode="&#x177;" glyph-name="ycircumflex" horiz-adv-x="560" d="M323 485H544V379H495L355 1Q341 -40 324 -69T286 -118T238 -147T175 -156Q130 -156 106 -146T65 -120V-48Q84 -54 104 -58T152 -62Q193 -62 215 -47T249 -6L255 11H206L65 379H16V485H258V379H192L294
95L390 379H323V485ZM224 681H354L441 539H358L289 608L220 539H137L224 681Z" />
<glyph unicode="&#x178;" glyph-name="Ydieresis" horiz-adv-x="601" d="M20 639H269V542H202L314 334L426 542H359V639H581V542H537L367 235V90H440V0H165V90H238V233L63 542H20V639ZM215 668Q187 668 167 687T147 735Q147 762 167 781T215 801Q243 801 263 782T283
735Q283 707 263 688T215 668ZM414 668Q386 668 366 687T346 735Q346 762 366 781T414 801Q442 801 462 782T483 735Q483 707 463 688T414 668Z" />
<glyph unicode="&#x179;" glyph-name="Zacute" horiz-adv-x="558" d="M278 798H435L321 683H240L278 798ZM52 639H527V511L156 92H417V185H525V0H30V124L393 538H161V449H52V639Z" />
<glyph unicode="&#x17a;" glyph-name="zacute" horiz-adv-x="470" d="M246 681H399L272 539H195L246 681ZM37 485H440V368L133 79H342V164H444V0H24V117L325 401H137V333H37V485Z" />
<glyph unicode="&#x17b;" glyph-name="Zdotaccent" horiz-adv-x="558" d="M52 639H527V511L156 92H417V185H525V0H30V124L393 538H161V449H52V639ZM288 678Q258 678 238 699T217 749Q217 778 237 799T288 820Q318 820 338 799T359 749Q359 720 339 699T288 678Z" />
<glyph unicode="&#x17c;" glyph-name="zdotaccent" horiz-adv-x="470" d="M37 485H440V368L133 79H342V164H444V0H24V117L325 401H137V333H37V485ZM244 539Q214 539 194 560T173 610Q173 639 193 660T244 681Q274 681 294 660T315 610Q315 581 295 560T244 539Z" />
<glyph unicode="&#x17d;" glyph-name="Zcaron" horiz-adv-x="558" d="M220 798L288 750L356 798H437L357 683H219L139 798H220ZM52 639H527V511L156 92H417V185H525V0H30V124L393 538H161V449H52V639Z" />
<glyph unicode="&#x17e;" glyph-name="zcaron" horiz-adv-x="470" d="M173 681L242 612L311 681H394L307 539H177L90 681H173ZM37 485H440V368L133 79H342V164H444V0H24V117L325 401H137V333H37V485Z" />
<glyph unicode="&#x192;" glyph-name="florin" horiz-adv-x="406" d="M107 408L117 502Q126 595 173 637T288 680Q324 680 346 672T381 653V579Q372 581 359 581T332 582Q288 582 269 565T245 504L235 408H360V316H225L177 -146H49L97 316H22V408H107Z" />
<glyph unicode="&#x1fa;" glyph-name="Aringacute" horiz-adv-x="661" d="M20 90H62L237 639H428L600 90H642V0H388V90H463L435 186H206L177 90H251V0H20V90ZM234 278H407L321 567L234 278ZM322 990H479L365 875H284L322 990ZM331 711Q350 711 362 723T375 757Q375
778 363 791T331 805Q314 805 301 792T288 757Q288 736 301 724T331 711ZM331 658Q310 658 292 665T260 686T239 718T231 757Q231 778 238 796T259 828T291 850T331 858Q352 858 371 850T403 829T425 797T433 757Q433 736 425 718T404 687T371 666T331 658Z" />
<glyph unicode="&#x1fb;" glyph-name="aringacute" horiz-adv-x="510" d="M55 432Q64 441 79 452T116 474T169 490T239 497Q292 497 329 484T391 445T426 384T437 302V122Q437 102 444 92T474 82Q479 82 483 82T492 83V9Q485 5 474 1Q465 -2 453 -4T423 -7Q374
-7 346 16T313 88Q298 38 260 13T165 -13Q102 -13 63 20T24 114V115Q24 154 40 179T82 220T142 247T215 266Q268 279 289 292T311 334V336Q311 366 290 388T217 410Q201 410 187 408T160 403V326H55V432ZM219 62Q255 62 283 92T311 179V250Q297 237 280 228T240
209Q217 200 200 193T173 177T157 157T152 130V125Q152 95 169 79T219 62ZM246 836Q265 836 278 848T291 883Q291 904 278 917T246 931Q229 931 216 918T203 883Q203 861 216 849T246 836ZM246 783Q225 783 207 791T175 812T154 844T146 883Q146 904 153 922T174
954T206 976T246 984Q267 984 286 976T318 954T340 922T348 883Q348 862 340 844T319 813T286 791T246 783ZM237 867H394L280 752H199L237 867Z" />
<glyph unicode="&#x1fc;" glyph-name="AEacute" horiz-adv-x="868" d="M522 798H679L565 683H484L522 798ZM721 534H538V363H747V267H538V93H729V185H835V0H351V90H408V185H211L173 90H246V0H20V90H60L242 542H178V639H828V449H721V534ZM249 278H408V542H355L249 278Z" />
<glyph unicode="&#x1fd;" glyph-name="aeacute" horiz-adv-x="781" d="M398 681H551L424 539H347L398 681ZM174 -13Q105 -13 65 21T24 116V117Q24 155 39 180T81 221T141 247T214 266Q267 279 288 292T309 334V336Q309 366 288 388T215 410Q200 410 186 408T159
403V326H53V432Q62 441 77 452T114 474T167 490T236 497Q297 497 333 478T388 423Q415 458 455 477T548 497Q601 497 640 481T705 438T743 373T756 293Q756 270 753 251T744 216H438Q440 178 450 153T480 113T527 92T591 85Q639 85 677 95T737 118V48Q721 26 676
8T562 -11Q480 -11 424 19T338 110Q322 40 279 14T174 -13ZM547 414Q499 414 470 381T438 280H642V290Q642 356 617 385T547 414ZM219 62Q256 62 283 92T311 179V250Q297 237 280 228T240 209Q217 200 200 193T173 177T157 157T152 130V125Q152 95 169 79T219 62Z"
/>
<glyph unicode="&#x1fe;" glyph-name="Oslashacute" horiz-adv-x="674" d="M338 -15Q287 -15 241 -2T157 38L112 -19H25L106 84Q71 126 51 184T31 321V323Q31 398 52 459T112 563T209 629T338 653Q391 653 435 640T515 603L557 656H643L566 558Q604 515 624 456T644
323V321Q644 237 621 174T556 69T459 6T338 -15ZM338 83Q421 83 466 135T512 303V352Q512 421 493 466L219 117Q239 99 268 91T338 83ZM163 303Q163 225 179 177L450 521Q410 550 338 550Q249 550 206 496T163 352V303ZM327 798H484L370 683H289L327 798Z" />
<glyph unicode="&#x1ff;" glyph-name="oslashacute" horiz-adv-x="542" d="M271 -11Q233 -11 198 -3T132 25L96 -19H24L88 61Q59 93 42 139T24 248V250Q24 308 42 354T93 431T171 480T271 497Q311 497 346 488T410 461L443 501H516L455 425Q485 393 501 350T518
251V249Q518 181 498 132T443 51T365 4T271 -11ZM271 71Q296 71 317 79T355 107T381 157T391 234V270Q391 306 383 336L189 97Q204 83 224 77T271 71ZM151 234Q151 183 160 150L351 387Q323 412 271 412Q217 412 184 376T151 270V234ZM272 681H425L298 539H221L272
681Z" />
<glyph unicode="&#x218;" glyph-name="Scommaaccent" horiz-adv-x="531" d="M185 -177Q196 -154 201 -133T206 -91Q206 -77 205 -67T201 -46H310Q314 -57 314 -72Q314 -101 302 -129T261 -177H185ZM353 544Q334 549 315 551T276 554Q252 554 231 550T195 537T170
510T161 468Q161 446 170 430T203 403Q225 392 254 386T315 374T375 360T427 336Q465 312 481 276T498 188Q498 135 480 97T429 34T354 -3T261 -15Q178 -15 122 5T36 51V189H146V94Q170 87 196 83T250 79Q305 79 338 100T371 174Q371 197 363 211T332 237Q316 246
290 252T235 265T175 280T123 300Q80 324 61 364T42 458Q42 509 61 546T111 607T183 642T266 653Q336 653 386 637T462 596V461H353V544Z" />
<glyph unicode="&#x219;" glyph-name="scommaaccent" horiz-adv-x="428" d="M138 -177Q149 -154 154 -133T159 -91Q159 -77 158 -67T154 -46H263Q267 -57 267 -72Q267 -101 255 -129T214 -177H138ZM278 412Q264 414 251 415T223 416Q182 416 159 402T136 356Q136
324 167 311Q185 304 208 301T254 294T300 285T341 268Q372 249 387 222T403 149Q403 109 389 79T348 28T286 -2T205 -13Q140 -13 96 2T25 39V141H128V77Q157 70 197 70Q245 70 267 84T290 133Q290 165 261 178Q248 184 228 187T186 195T140 204T98 219Q63 237
47 267T31 341Q31 383 46 413T87 461T147 488T221 497Q275 497 316 485T379 456V352H278V412Z" />
<glyph unicode="&#x21a;" glyph-name="uni021A" horiz-adv-x="613" d="M232 -177Q243 -154 248 -133T253 -91Q253 -77 252 -67T248 -46H357Q361 -57 361 -72Q361 -101 349 -129T308 -177H232ZM478 538H371V90H444V0H169V90H242V538H135V426H28V639H585V426H478V538Z" />
<glyph unicode="&#x21b;" glyph-name="uni021B" horiz-adv-x="388" d="M147 -177Q158 -154 163 -133T168 -91Q168 -77 167 -67T163 -46H272Q276 -57 276 -72Q276 -101 264 -129T223 -177H147ZM243 -13Q214 -13 186 -6T135 18T100 65T86 139V394H21V466Q52 468
71 477T103 505T122 552T137 619H213V485H358V394H213V163Q213 116 232 99T291 81Q311 81 327 85T361 95V33Q349 16 321 2T243 -13Z" />
<glyph unicode="&#x237;" glyph-name="uni0237" horiz-adv-x="263" d="M21 485H204V-7Q204 -47 193 -75T164 -121T120 -147T66 -155Q28 -155 7 -148T-25 -132V-65Q-16 -67 -7 -67T16 -67Q47 -67 62 -58T77 -15V379H21V485Z" />
<glyph unicode="&#x2c6;" glyph-name="circumflex" horiz-adv-x="400" d="M135 681H265L352 539H269L200 608L131 539H48L135 681Z" />
<glyph unicode="&#x2c7;" glyph-name="caron" horiz-adv-x="400" d="M131 681L200 612L269 681H352L265 539H135L48 681H131Z" />
<glyph unicode="&#x2d8;" glyph-name="breve" horiz-adv-x="400" d="M327 677Q329 652 323 627T301 582T260 550T199 537Q164 537 139 549T99 581T77 626T73 677H145Q144 653 157 636T199 618Q230 618 242 635T254 677H327Z" />
<glyph unicode="&#x2d9;" glyph-name="dotaccent" horiz-adv-x="400" d="M200 539Q170 539 150 560T129 610Q129 639 149 660T200 681Q230 681 250 660T271 610Q271 581 251 560T200 539Z" />
<glyph unicode="&#x2da;" glyph-name="ring" horiz-adv-x="397" d="M198 589Q217 589 230 601T243 636Q243 657 230 670T198 684Q181 684 168 671T155 636Q155 614 168 602T198 589ZM198 536Q177 536 159 544T127 565T106 597T98 636Q98 657 105 675T126 707T158
729T198 737Q219 737 238 729T270 707T292 675T300 636Q300 615 292 597T271 566T238 544T198 536Z" />
<glyph unicode="&#x2db;" glyph-name="ogonek" horiz-adv-x="400" d="M210 -155Q165 -155 142 -136T118 -85Q118 -52 145 -31T209 0H269Q234 -19 225 -35T216 -62Q216 -88 244 -88Q253 -88 260 -86T273 -82V-135Q258 -155 210 -155Z" />
<glyph unicode="&#x2dc;" glyph-name="tilde" horiz-adv-x="400" d="M65 551Q58 575 58 598T68 639T94 669T138 681Q159 681 176 676T207 664T232 653T255 647Q269 647 273 656T280 685H334Q340 661 340 638T332 597T307 567T265 555Q246 555 230 560T198 572T170
583T145 589Q131 589 126 580T118 551H65V551Z" />
<glyph unicode="&#x2dd;" glyph-name="hungarumlaut" horiz-adv-x="400" d="M120 681H242L158 539H71L120 681ZM281 681H403L319 539H232L281 681Z" />
</font>
</defs>
</svg>
